{
	"asset":{
		"generator":"Khronos glTF Blender I/O v3.6.27",
		"version":"2.0"
	},
	"scene":0,
	"scenes":[
		{
			"extras":{
				"uuid":"022df20a-b22f-4a39-9f0d-91b877a9a0ed",
				"assets reported":{}
			},
			"name":"Scene",
			"nodes":[
				0,
				1,
				2,
				3,
				4,
				5,
				6
			]
		}
	],
	"nodes":[
		{
			"mesh":0,
			"name":"Door_Handle_0.001"
		},
		{
			"mesh":1,
			"name":"Door_Door_0.002",
			"scale":[
				1,
				1,
				0.030000008642673492
			]
		},
		{
			"mesh":2,
			"name":"Cylinder",
			"scale":[
				1,
				1,
				0.800000011920929
			],
			"translation":[
				-0.006388997193425894,
				0,
				0
			]
		},
		{
			"mesh":3,
			"name":"Cylinder.001",
			"scale":[
				1,
				1,
				0.800000011920929
			],
			"translation":[
				-0.006388997193425894,
				0,
				0
			]
		},
		{
			"mesh":4,
			"name":"Cylinder.002",
			"scale":[
				1,
				1,
				0.800000011920929
			],
			"translation":[
				-0.006388997193425894,
				0,
				0
			]
		},
		{
			"mesh":5,
			"name":"Door_Handle_0.002"
		},
		{
			"mesh":6,
			"name":"Door_Handle_0.003",
			"scale":[
				0.3068581819534302,
				0.2587428092956543,
				2.063875436782837
			],
			"translation":[
				-1.0569545030593872,
				0.8542565703392029,
				0
			]
		}
	],
	"materials":[
		{
			"doubleSided":true,
			"name":"Handle",
			"pbrMetallicRoughness":{
				"baseColorFactor":[
					0.35883989930152893,
					0.35883989930152893,
					0.35883989930152893,
					1
				],
				"metallicFactor":0.3937007784843445,
				"roughnessFactor":0.17510461807250977
			}
		},
		{
			"doubleSided":true,
			"name":"Door",
			"pbrMetallicRoughness":{
				"baseColorFactor":[
					0.800000011920929,
					0.800000011920929,
					0.800000011920929,
					1
				],
				"metallicFactor":0,
				"roughnessFactor":0.759351909160614
			}
		}
	],
	"meshes":[
		{
			"name":"Door_Handle_0.001",
			"primitives":[
				{
					"attributes":{
						"POSITION":0,
						"NORMAL":1,
						"TEXCOORD_0":2
					},
					"indices":3,
					"material":0
				}
			]
		},
		{
			"name":"Door_Door_0.002",
			"primitives":[
				{
					"attributes":{
						"POSITION":4,
						"NORMAL":5,
						"TEXCOORD_0":6,
						"TANGENT":7
					},
					"indices":8,
					"material":1
				}
			]
		},
		{
			"name":"Cylinder",
			"primitives":[
				{
					"attributes":{
						"POSITION":9,
						"NORMAL":10,
						"TEXCOORD_0":11,
						"TANGENT":12
					},
					"indices":13,
					"material":0
				}
			]
		},
		{
			"name":"Cylinder.001",
			"primitives":[
				{
					"attributes":{
						"POSITION":14,
						"NORMAL":15,
						"TEXCOORD_0":16
					},
					"indices":17,
					"material":0
				}
			]
		},
		{
			"name":"Cylinder.002",
			"primitives":[
				{
					"attributes":{
						"POSITION":18,
						"NORMAL":19,
						"TEXCOORD_0":20
					},
					"indices":21,
					"material":0
				}
			]
		},
		{
			"name":"Door_Handle_0.002",
			"primitives":[
				{
					"attributes":{
						"POSITION":22,
						"NORMAL":23,
						"TEXCOORD_0":24
					},
					"indices":25,
					"material":0
				}
			]
		},
		{
			"name":"Door_Handle_0.003",
			"primitives":[
				{
					"attributes":{
						"POSITION":26,
						"NORMAL":27,
						"TEXCOORD_0":28
					},
					"indices":25,
					"material":0
				}
			]
		}
	],
	"accessors":[
		{
			"bufferView":0,
			"componentType":5126,
			"count":128,
			"max":[
				-0.8274948000907898,
				1.100000023841858,
				0.15883195400238037
			],
			"min":[
				-1.149999976158142,
				0.810433566570282,
				-0.15883316099643707
			],
			"type":"VEC3"
		},
		{
			"bufferView":1,
			"componentType":5126,
			"count":128,
			"type":"VEC3"
		},
		{
			"bufferView":2,
			"componentType":5126,
			"count":128,
			"type":"VEC2"
		},
		{
			"bufferView":3,
			"componentType":5123,
			"count":258,
			"type":"SCALAR"
		},
		{
			"bufferView":4,
			"componentType":5126,
			"count":24,
			"max":[
				-5.960464477539063e-08,
				2,
				1
			],
			"min":[
				-1.1399999856948853,
				0,
				-1
			],
			"type":"VEC3"
		},
		{
			"bufferView":5,
			"componentType":5126,
			"count":24,
			"type":"VEC3"
		},
		{
			"bufferView":6,
			"componentType":5126,
			"count":24,
			"type":"VEC2"
		},
		{
			"bufferView":7,
			"componentType":5126,
			"count":24,
			"type":"VEC4"
		},
		{
			"bufferView":8,
			"componentType":5123,
			"count":36,
			"type":"SCALAR"
		},
		{
			"bufferView":9,
			"componentType":5126,
			"count":34,
			"max":[
				-0.9800000190734863,
				1.040000081062317,
				0.07000000774860382
			],
			"min":[
				-1.1200000047683716,
				0.8999999761581421,
				-0.07000003755092621
			],
			"type":"VEC3"
		},
		{
			"bufferView":10,
			"componentType":5126,
			"count":34,
			"type":"VEC3"
		},
		{
			"bufferView":11,
			"componentType":5126,
			"count":34,
			"type":"VEC2"
		},
		{
			"bufferView":12,
			"componentType":5126,
			"count":34,
			"type":"VEC4"
		},
		{
			"bufferView":13,
			"componentType":5123,
			"count":96,
			"type":"SCALAR"
		},
		{
			"bufferView":14,
			"componentType":5126,
			"count":16,
			"max":[
				-0.9800000190734863,
				1.040000081062317,
				-0.07000002264976501
			],
			"min":[
				-1.1200000047683716,
				0.8999999761581421,
				-0.07000003755092621
			],
			"type":"VEC3"
		},
		{
			"bufferView":15,
			"componentType":5126,
			"count":16,
			"type":"VEC3"
		},
		{
			"bufferView":16,
			"componentType":5126,
			"count":16,
			"type":"VEC2"
		},
		{
			"bufferView":17,
			"componentType":5123,
			"count":42,
			"type":"SCALAR"
		},
		{
			"bufferView":18,
			"componentType":5126,
			"count":16,
			"max":[
				-0.9800000190734863,
				1.040000081062317,
				0.07000000774860382
			],
			"min":[
				-1.1200000047683716,
				0.8999999761581421,
				0.06999999284744263
			],
			"type":"VEC3"
		},
		{
			"bufferView":19,
			"componentType":5126,
			"count":16,
			"type":"VEC3"
		},
		{
			"bufferView":20,
			"componentType":5126,
			"count":16,
			"type":"VEC2"
		},
		{
			"bufferView":21,
			"componentType":5123,
			"count":42,
			"type":"SCALAR"
		},
		{
			"bufferView":22,
			"componentType":5126,
			"count":32,
			"max":[
				-1.0499999523162842,
				1.100000023841858,
				0.019999995827674866
			],
			"min":[
				-1.149999976158142,
				0.810433566570282,
				-0.019999995827674866
			],
			"type":"VEC3"
		},
		{
			"bufferView":23,
			"componentType":5126,
			"count":32,
			"type":"VEC3"
		},
		{
			"bufferView":24,
			"componentType":5126,
			"count":32,
			"type":"VEC2"
		},
		{
			"bufferView":25,
			"componentType":5123,
			"count":54,
			"type":"SCALAR"
		},
		{
			"bufferView":26,
			"componentType":5126,
			"count":32,
			"max":[
				0.04999995231628418,
				0.14478325843811035,
				0.019999995827674866
			],
			"min":[
				-0.05000007152557373,
				-0.14478319883346558,
				-0.019999995827674866
			],
			"type":"VEC3"
		},
		{
			"bufferView":27,
			"componentType":5126,
			"count":32,
			"type":"VEC3"
		},
		{
			"bufferView":28,
			"componentType":5126,
			"count":32,
			"type":"VEC2"
		}
	],
	"bufferViews":[
		{
			"buffer":0,
			"byteLength":1536,
			"byteOffset":0,
			"target":34962
		},
		{
			"buffer":0,
			"byteLength":1536,
			"byteOffset":1536,
			"target":34962
		},
		{
			"buffer":0,
			"byteLength":1024,
			"byteOffset":3072,
			"target":34962
		},
		{
			"buffer":0,
			"byteLength":516,
			"byteOffset":4096,
			"target":34963
		},
		{
			"buffer":0,
			"byteLength":288,
			"byteOffset":4612,
			"target":34962
		},
		{
			"buffer":0,
			"byteLength":288,
			"byteOffset":4900,
			"target":34962
		},
		{
			"buffer":0,
			"byteLength":192,
			"byteOffset":5188,
			"target":34962
		},
		{
			"buffer":0,
			"byteLength":384,
			"byteOffset":5380,
			"target":34962
		},
		{
			"buffer":0,
			"byteLength":72,
			"byteOffset":5764,
			"target":34963
		},
		{
			"buffer":0,
			"byteLength":408,
			"byteOffset":5836,
			"target":34962
		},
		{
			"buffer":0,
			"byteLength":408,
			"byteOffset":6244,
			"target":34962
		},
		{
			"buffer":0,
			"byteLength":272,
			"byteOffset":6652,
			"target":34962
		},
		{
			"buffer":0,
			"byteLength":544,
			"byteOffset":6924,
			"target":34962
		},
		{
			"buffer":0,
			"byteLength":192,
			"byteOffset":7468,
			"target":34963
		},
		{
			"buffer":0,
			"byteLength":192,
			"byteOffset":7660,
			"target":34962
		},
		{
			"buffer":0,
			"byteLength":192,
			"byteOffset":7852,
			"target":34962
		},
		{
			"buffer":0,
			"byteLength":128,
			"byteOffset":8044,
			"target":34962
		},
		{
			"buffer":0,
			"byteLength":84,
			"byteOffset":8172,
			"target":34963
		},
		{
			"buffer":0,
			"byteLength":192,
			"byteOffset":8256,
			"target":34962
		},
		{
			"buffer":0,
			"byteLength":192,
			"byteOffset":8448,
			"target":34962
		},
		{
			"buffer":0,
			"byteLength":128,
			"byteOffset":8640,
			"target":34962
		},
		{
			"buffer":0,
			"byteLength":84,
			"byteOffset":8768,
			"target":34963
		},
		{
			"buffer":0,
			"byteLength":384,
			"byteOffset":8852,
			"target":34962
		},
		{
			"buffer":0,
			"byteLength":384,
			"byteOffset":9236,
			"target":34962
		},
		{
			"buffer":0,
			"byteLength":256,
			"byteOffset":9620,
			"target":34962
		},
		{
			"buffer":0,
			"byteLength":108,
			"byteOffset":9876,
			"target":34963
		},
		{
			"buffer":0,
			"byteLength":384,
			"byteOffset":9984,
			"target":34962
		},
		{
			"buffer":0,
			"byteLength":384,
			"byteOffset":10368,
			"target":34962
		},
		{
			"buffer":0,
			"byteLength":256,
			"byteOffset":10752,
			"target":34962
		}
	],
	"buffers":[
		{
			"byteLength":11008,
			"uri":"Door-20a912a5880ead25bd42b556817d3d34.bin"
		}
	]
}
