{
	"asset":{
		"generator":"Khronos glTF Blender I/O v3.6.27",
		"version":"2.0"
	},
	"scene":0,
	"scenes":[
		{
			"extras":{
				"assets used":{},
				"uuid":"255d3680-4b66-4fd8-ad69-30c74e06cab9",
				"assets reported":{}
			},
			"name":"Scene",
			"nodes":[
				3
			]
		}
	],
	"nodes":[
		{
			"mesh":0,
			"name":"Door_Frame_0.001"
		},
		{
			"mesh":1,
			"name":"Door_Glasses_0.001"
		},
		{
			"mesh":2,
			"name":"Door_Handle_0.001"
		},
		{
			"children":[
				0,
				1,
				2
			],
			"mesh":3,
			"name":"Door_Door_0.001"
		}
	],
	"materials":[
		{
			"doubleSided":true,
			"name":"Frame",
			"pbrMetallicRoughness":{
				"baseColorFactor":[
					0.8373392224311829,
					0.8136562705039978,
					0.6006612181663513,
					1
				],
				"metallicFactor":0,
				"roughnessFactor":0.8604204058647156
			}
		},
		{
			"alphaMode":"BLEND",
			"doubleSided":true,
			"name":"Glasses",
			"pbrMetallicRoughness":{
				"baseColorFactor":[
					0.8373390436172485,
					0.9332043528556824,
					1,
					0.20000000298023224
				],
				"metallicFactor":0,
				"roughnessFactor":0
			}
		},
		{
			"doubleSided":true,
			"name":"Handle",
			"pbrMetallicRoughness":{
				"baseColorFactor":[
					0.8000000715255737,
					0.7420828342437744,
					0.5466059446334839,
					1
				],
				"metallicFactor":0,
				"roughnessFactor":0.8207738995552063
			}
		},
		{
			"doubleSided":true,
			"name":"Door",
			"pbrMetallicRoughness":{
				"baseColorFactor":[
					0.800000011920929,
					0.800000011920929,
					0.800000011920929,
					1
				],
				"metallicFactor":0,
				"roughnessFactor":0.759351909160614
			}
		}
	],
	"meshes":[
		{
			"name":"Door_Frame_0.001",
			"primitives":[
				{
					"attributes":{
						"POSITION":0,
						"NORMAL":1,
						"TEXCOORD_0":2,
						"TANGENT":3
					},
					"indices":4,
					"material":0
				}
			]
		},
		{
			"name":"Door_Glasses_0.001",
			"primitives":[
				{
					"attributes":{
						"POSITION":5,
						"NORMAL":6,
						"TEXCOORD_0":7,
						"TANGENT":8
					},
					"indices":9,
					"material":1
				}
			]
		},
		{
			"name":"Door_Handle_0.001",
			"primitives":[
				{
					"attributes":{
						"POSITION":10,
						"NORMAL":11,
						"TEXCOORD_0":12,
						"TANGENT":13
					},
					"indices":14,
					"material":2
				}
			]
		},
		{
			"name":"Door_Door_0.001",
			"primitives":[
				{
					"attributes":{
						"POSITION":15,
						"NORMAL":16,
						"TEXCOORD_0":17,
						"TANGENT":18
					},
					"indices":19,
					"material":3
				}
			]
		}
	],
	"accessors":[
		{
			"bufferView":0,
			"componentType":5126,
			"count":80,
			"max":[
				-0.7364864945411682,
				1.8696321249008179,
				0.0321357324719429
			],
			"min":[
				-1.0102614164352417,
				1.0974864959716797,
				-0.032137610018253326
			],
			"type":"VEC3"
		},
		{
			"bufferView":1,
			"componentType":5126,
			"count":80,
			"type":"VEC3"
		},
		{
			"bufferView":2,
			"componentType":5126,
			"count":80,
			"type":"VEC2"
		},
		{
			"bufferView":3,
			"componentType":5126,
			"count":80,
			"type":"VEC4"
		},
		{
			"bufferView":4,
			"componentType":5123,
			"count":120,
			"type":"SCALAR"
		},
		{
			"bufferView":5,
			"componentType":5126,
			"count":24,
			"max":[
				-0.768622875213623,
				1.8371119499206543,
				0.008033392019569874
			],
			"min":[
				-0.9781250357627869,
				1.130006194114685,
				-0.008035259321331978
			],
			"type":"VEC3"
		},
		{
			"bufferView":6,
			"componentType":5126,
			"count":24,
			"type":"VEC3"
		},
		{
			"bufferView":7,
			"componentType":5126,
			"count":24,
			"type":"VEC2"
		},
		{
			"bufferView":8,
			"componentType":5126,
			"count":24,
			"type":"VEC4"
		},
		{
			"bufferView":9,
			"componentType":5123,
			"count":36,
			"type":"SCALAR"
		},
		{
			"bufferView":10,
			"componentType":5126,
			"count":1564,
			"max":[
				-0.8274948000907898,
				1.0338175296783447,
				0.14883194863796234
			],
			"min":[
				-1.1442984342575073,
				0.7513420581817627,
				-0.14883315563201904
			],
			"type":"VEC3"
		},
		{
			"bufferView":11,
			"componentType":5126,
			"count":1564,
			"type":"VEC3"
		},
		{
			"bufferView":12,
			"componentType":5126,
			"count":1564,
			"type":"VEC2"
		},
		{
			"bufferView":13,
			"componentType":5126,
			"count":1564,
			"type":"VEC4"
		},
		{
			"bufferView":14,
			"componentType":5123,
			"count":1992,
			"type":"SCALAR"
		},
		{
			"bufferView":15,
			"componentType":5126,
			"count":50,
			"max":[
				-8.052678458625451e-05,
				1.9997187852859497,
				0.02410232089459896
			],
			"min":[
				-1.1388071775436401,
				-0.0002812208840623498,
				-0.0241025872528553
			],
			"type":"VEC3"
		},
		{
			"bufferView":16,
			"componentType":5126,
			"count":50,
			"type":"VEC3"
		},
		{
			"bufferView":17,
			"componentType":5126,
			"count":50,
			"type":"VEC2"
		},
		{
			"bufferView":18,
			"componentType":5126,
			"count":50,
			"type":"VEC4"
		},
		{
			"bufferView":19,
			"componentType":5123,
			"count":72,
			"type":"SCALAR"
		}
	],
	"bufferViews":[
		{
			"buffer":0,
			"byteLength":960,
			"byteOffset":0,
			"target":34962
		},
		{
			"buffer":0,
			"byteLength":960,
			"byteOffset":960,
			"target":34962
		},
		{
			"buffer":0,
			"byteLength":640,
			"byteOffset":1920,
			"target":34962
		},
		{
			"buffer":0,
			"byteLength":1280,
			"byteOffset":2560,
			"target":34962
		},
		{
			"buffer":0,
			"byteLength":240,
			"byteOffset":3840,
			"target":34963
		},
		{
			"buffer":0,
			"byteLength":288,
			"byteOffset":4080,
			"target":34962
		},
		{
			"buffer":0,
			"byteLength":288,
			"byteOffset":4368,
			"target":34962
		},
		{
			"buffer":0,
			"byteLength":192,
			"byteOffset":4656,
			"target":34962
		},
		{
			"buffer":0,
			"byteLength":384,
			"byteOffset":4848,
			"target":34962
		},
		{
			"buffer":0,
			"byteLength":72,
			"byteOffset":5232,
			"target":34963
		},
		{
			"buffer":0,
			"byteLength":18768,
			"byteOffset":5304,
			"target":34962
		},
		{
			"buffer":0,
			"byteLength":18768,
			"byteOffset":24072,
			"target":34962
		},
		{
			"buffer":0,
			"byteLength":12512,
			"byteOffset":42840,
			"target":34962
		},
		{
			"buffer":0,
			"byteLength":25024,
			"byteOffset":55352,
			"target":34962
		},
		{
			"buffer":0,
			"byteLength":3984,
			"byteOffset":80376,
			"target":34963
		},
		{
			"buffer":0,
			"byteLength":600,
			"byteOffset":84360,
			"target":34962
		},
		{
			"buffer":0,
			"byteLength":600,
			"byteOffset":84960,
			"target":34962
		},
		{
			"buffer":0,
			"byteLength":400,
			"byteOffset":85560,
			"target":34962
		},
		{
			"buffer":0,
			"byteLength":800,
			"byteOffset":85960,
			"target":34962
		},
		{
			"buffer":0,
			"byteLength":144,
			"byteOffset":86760,
			"target":34963
		}
	],
	"buffers":[
		{
			"byteLength":86904,
			"uri":"Door-c63384c265847d9af74d3f20a8e60a43.bin"
		}
	]
}
