{
	"asset":{
		"generator":"Khronos glTF Blender I/O v3.6.27",
		"version":"2.0"
	},
	"extensionsUsed":[
		"KHR_materials_transmission",
		"KHR_materials_ior"
	],
	"scene":0,
	"scenes":[
		{
			"extras":{
				"uuid":"e8ca7369-65c4-46b6-8a9e-e617224a7022",
				"assets reported":{}
			},
			"name":"Scene",
			"nodes":[
				6
			]
		}
	],
	"nodes":[
		{
			"mesh":0,
			"name":"handle_A_020",
			"translation":[
				0.03492671251296997,
				-0.09592573344707489,
				0.8406173586845398
			]
		},
		{
			"mesh":1,
			"name":"striker_020",
			"translation":[
				0.03492671251296997,
				-0.09592573344707489,
				0.8342671990394592
			]
		},
		{
			"children":[
				0,
				1
			],
			"mesh":2,
			"name":"door_A_020",
			"translation":[
				-0.006947219371795654,
				1.0611257553100586,
				-0.9131178259849548
			]
		},
		{
			"mesh":3,
			"name":"handle_B_020",
			"translation":[
				0.03492647409439087,
				-0.09592552483081818,
				-0.8406173586845398
			]
		},
		{
			"children":[
				3
			],
			"mesh":4,
			"name":"door_B_020",
			"translation":[
				-0.006947219371795654,
				1.0611257553100586,
				0.9131746888160706
			]
		},
		{
			"mesh":5,
			"name":"floor_plate_double_020"
		},
		{
			"children":[
				2,
				4,
				5
			],
			"mesh":6,
			"name":"frame_020",
			"translation":[
				0,
				0.019050000235438347,
				0
			]
		}
	],
	"materials":[
		{
			"doubleSided":true,
			"name":"door_single_mat",
			"pbrMetallicRoughness":{}
		},
		{
			"doubleSided":true,
			"name":"door_double_mat",
			"pbrMetallicRoughness":{}
		},
		{
			"doubleSided":true,
			"extensions":{
				"KHR_materials_transmission":{
					"transmissionFactor":1
				},
				"KHR_materials_ior":{
					"ior":1.4500000476837158
				}
			},
			"name":"glass_mat",
			"pbrMetallicRoughness":{
				"baseColorFactor":[
					0.9168045520782471,
					1,
					0.8900054693222046,
					1
				],
				"metallicFactor":0,
				"roughnessFactor":0.05000000074505806
			}
		},
		{
			"doubleSided":true,
			"name":"window_frame_mat",
			"pbrMetallicRoughness":{}
		},
		{
			"doubleSided":true,
			"name":"wire_mat",
			"pbrMetallicRoughness":{}
		},
		{
			"doubleSided":true,
			"name":"props_mat",
			"pbrMetallicRoughness":{}
		},
		{
			"doubleSided":true,
			"name":"double_frame_mat",
			"pbrMetallicRoughness":{}
		}
	],
	"meshes":[
		{
			"name":"Cylinder.045",
			"primitives":[
				{
					"attributes":{
						"POSITION":0,
						"NORMAL":1,
						"TEXCOORD_0":2,
						"TANGENT":3
					},
					"indices":4,
					"material":0
				}
			]
		},
		{
			"name":"Cylinder.046",
			"primitives":[
				{
					"attributes":{
						"POSITION":5,
						"NORMAL":6,
						"TEXCOORD_0":7,
						"TANGENT":8
					},
					"indices":9,
					"material":0
				}
			]
		},
		{
			"name":"Cylinder.040",
			"primitives":[
				{
					"attributes":{
						"POSITION":10,
						"NORMAL":11,
						"TEXCOORD_0":12,
						"TANGENT":13
					},
					"indices":14,
					"material":1
				},
				{
					"attributes":{
						"POSITION":15,
						"NORMAL":16,
						"TEXCOORD_0":17,
						"TANGENT":18
					},
					"indices":19,
					"material":2
				},
				{
					"attributes":{
						"POSITION":20,
						"NORMAL":21,
						"TEXCOORD_0":22,
						"TANGENT":23
					},
					"indices":24,
					"material":3
				},
				{
					"attributes":{
						"POSITION":25,
						"NORMAL":26,
						"TEXCOORD_0":27,
						"TANGENT":28
					},
					"indices":19,
					"material":4
				}
			]
		},
		{
			"name":"Cylinder.057",
			"primitives":[
				{
					"attributes":{
						"POSITION":29,
						"NORMAL":30,
						"TEXCOORD_0":31,
						"TANGENT":32
					},
					"indices":33,
					"material":0
				}
			]
		},
		{
			"name":"Cylinder.052",
			"primitives":[
				{
					"attributes":{
						"POSITION":34,
						"NORMAL":35,
						"TEXCOORD_0":36,
						"TANGENT":37
					},
					"indices":38,
					"material":1
				},
				{
					"attributes":{
						"POSITION":39,
						"NORMAL":40,
						"TEXCOORD_0":41,
						"TANGENT":42
					},
					"indices":43,
					"material":2
				},
				{
					"attributes":{
						"POSITION":44,
						"NORMAL":45,
						"TEXCOORD_0":46,
						"TANGENT":47
					},
					"indices":48,
					"material":3
				},
				{
					"attributes":{
						"POSITION":49,
						"NORMAL":50,
						"TEXCOORD_0":51,
						"TANGENT":52
					},
					"indices":43,
					"material":4
				}
			]
		},
		{
			"name":"Cube.003",
			"primitives":[
				{
					"attributes":{
						"POSITION":53,
						"NORMAL":54,
						"TEXCOORD_0":55,
						"TANGENT":56
					},
					"indices":57,
					"material":5
				}
			]
		},
		{
			"name":"Plane.002",
			"primitives":[
				{
					"attributes":{
						"POSITION":58,
						"NORMAL":59,
						"TEXCOORD_0":60,
						"TANGENT":61
					},
					"indices":62,
					"material":6
				}
			]
		}
	],
	"accessors":[
		{
			"bufferView":0,
			"componentType":5126,
			"count":648,
			"max":[
				0.06974401324987411,
				0.03333750367164612,
				0.03333751857280731
			],
			"min":[
				-0.08120448142290115,
				-0.03333749994635582,
				-0.09309753030538559
			],
			"type":"VEC3"
		},
		{
			"bufferView":1,
			"componentType":5126,
			"count":648,
			"type":"VEC3"
		},
		{
			"bufferView":2,
			"componentType":5126,
			"count":648,
			"type":"VEC2"
		},
		{
			"bufferView":3,
			"componentType":5126,
			"count":648,
			"type":"VEC4"
		},
		{
			"bufferView":4,
			"componentType":5123,
			"count":2412,
			"type":"SCALAR"
		},
		{
			"bufferView":5,
			"componentType":5126,
			"count":48,
			"max":[
				0.007912627421319485,
				0.015641435980796814,
				0.08524403721094131
			],
			"min":[
				-0.013459582813084126,
				-0.015641432255506516,
				0.06245921924710274
			],
			"type":"VEC3"
		},
		{
			"bufferView":6,
			"componentType":5126,
			"count":48,
			"type":"VEC3"
		},
		{
			"bufferView":7,
			"componentType":5126,
			"count":48,
			"type":"VEC2"
		},
		{
			"bufferView":8,
			"componentType":5126,
			"count":48,
			"type":"VEC4"
		},
		{
			"bufferView":9,
			"componentType":5123,
			"count":120,
			"type":"SCALAR"
		},
		{
			"bufferView":10,
			"componentType":5126,
			"count":347,
			"max":[
				0.05139792710542679,
				0.9696938395500183,
				0.910957932472229
			],
			"min":[
				-0.00627874257043004,
				-1.0611258745193481,
				-0.00628479802981019
			],
			"type":"VEC3"
		},
		{
			"bufferView":11,
			"componentType":5126,
			"count":347,
			"type":"VEC3"
		},
		{
			"bufferView":12,
			"componentType":5126,
			"count":347,
			"type":"VEC2"
		},
		{
			"bufferView":13,
			"componentType":5126,
			"count":347,
			"type":"VEC4"
		},
		{
			"bufferView":14,
			"componentType":5123,
			"count":972,
			"type":"SCALAR"
		},
		{
			"bufferView":15,
			"componentType":5126,
			"count":8,
			"max":[
				0.03223405033349991,
				0.7930753231048584,
				0.7619990110397339
			],
			"min":[
				0.02588401734828949,
				-0.019724758341908455,
				0.5587989091873169
			],
			"type":"VEC3"
		},
		{
			"bufferView":16,
			"componentType":5126,
			"count":8,
			"type":"VEC3"
		},
		{
			"bufferView":17,
			"componentType":5126,
			"count":8,
			"type":"VEC2"
		},
		{
			"bufferView":18,
			"componentType":5126,
			"count":8,
			"type":"VEC4"
		},
		{
			"bufferView":19,
			"componentType":5123,
			"count":12,
			"type":"SCALAR"
		},
		{
			"bufferView":20,
			"componentType":5126,
			"count":128,
			"max":[
				0.05366529896855354,
				0.7930753231048584,
				0.7619989514350891
			],
			"min":[
				0.004452767316251993,
				-0.01972479186952114,
				0.5587988495826721
			],
			"type":"VEC3"
		},
		{
			"bufferView":21,
			"componentType":5126,
			"count":128,
			"type":"VEC3"
		},
		{
			"bufferView":22,
			"componentType":5126,
			"count":128,
			"type":"VEC2"
		},
		{
			"bufferView":23,
			"componentType":5126,
			"count":128,
			"type":"VEC4"
		},
		{
			"bufferView":24,
			"componentType":5123,
			"count":192,
			"type":"SCALAR"
		},
		{
			"bufferView":25,
			"componentType":5126,
			"count":8,
			"max":[
				0.029455924406647682,
				0.7930753231048584,
				0.7619990110397339
			],
			"min":[
				0.028662141412496567,
				-0.019724758341908455,
				0.5587989091873169
			],
			"type":"VEC3"
		},
		{
			"bufferView":26,
			"componentType":5126,
			"count":8,
			"type":"VEC3"
		},
		{
			"bufferView":27,
			"componentType":5126,
			"count":8,
			"type":"VEC2"
		},
		{
			"bufferView":28,
			"componentType":5126,
			"count":8,
			"type":"VEC4"
		},
		{
			"bufferView":29,
			"componentType":5126,
			"count":648,
			"max":[
				0.06974401324987411,
				0.033337514847517014,
				0.0930975154042244
			],
			"min":[
				-0.08120448887348175,
				-0.03333750739693642,
				-0.03333750739693642
			],
			"type":"VEC3"
		},
		{
			"bufferView":30,
			"componentType":5126,
			"count":648,
			"type":"VEC3"
		},
		{
			"bufferView":31,
			"componentType":5126,
			"count":648,
			"type":"VEC2"
		},
		{
			"bufferView":32,
			"componentType":5126,
			"count":648,
			"type":"VEC4"
		},
		{
			"bufferView":33,
			"componentType":5123,
			"count":2412,
			"type":"SCALAR"
		},
		{
			"bufferView":34,
			"componentType":5126,
			"count":347,
			"max":[
				0.0513976514339447,
				0.9696939587593079,
				0.006284784991294146
			],
			"min":[
				-0.00627874257043004,
				-1.0611257553100586,
				-0.910957932472229
			],
			"type":"VEC3"
		},
		{
			"bufferView":35,
			"componentType":5126,
			"count":347,
			"type":"VEC3"
		},
		{
			"bufferView":36,
			"componentType":5126,
			"count":347,
			"type":"VEC2"
		},
		{
			"bufferView":37,
			"componentType":5126,
			"count":347,
			"type":"VEC4"
		},
		{
			"bufferView":38,
			"componentType":5123,
			"count":972,
			"type":"SCALAR"
		},
		{
			"bufferView":39,
			"componentType":5126,
			"count":8,
			"max":[
				0.03223384916782379,
				0.7930755615234375,
				-0.5587987899780273
			],
			"min":[
				0.025883818045258522,
				-0.01972457580268383,
				-0.7619990110397339
			],
			"type":"VEC3"
		},
		{
			"bufferView":40,
			"componentType":5126,
			"count":8,
			"type":"VEC3"
		},
		{
			"bufferView":41,
			"componentType":5126,
			"count":8,
			"type":"VEC2"
		},
		{
			"bufferView":42,
			"componentType":5126,
			"count":8,
			"type":"VEC4"
		},
		{
			"bufferView":43,
			"componentType":5123,
			"count":12,
			"type":"SCALAR"
		},
		{
			"bufferView":44,
			"componentType":5126,
			"count":128,
			"max":[
				0.053665097802877426,
				0.7930755615234375,
				-0.5587987303733826
			],
			"min":[
				0.0044525680132210255,
				-0.019724542275071144,
				-0.7619989514350891
			],
			"type":"VEC3"
		},
		{
			"bufferView":45,
			"componentType":5126,
			"count":128,
			"type":"VEC3"
		},
		{
			"bufferView":46,
			"componentType":5126,
			"count":128,
			"type":"VEC2"
		},
		{
			"bufferView":47,
			"componentType":5126,
			"count":128,
			"type":"VEC4"
		},
		{
			"bufferView":48,
			"componentType":5123,
			"count":192,
			"type":"SCALAR"
		},
		{
			"bufferView":49,
			"componentType":5126,
			"count":8,
			"max":[
				0.029455725103616714,
				0.7930755615234375,
				-0.5587987899780273
			],
			"min":[
				0.0286619421094656,
				-0.01972457580268383,
				-0.7619990110397339
			],
			"type":"VEC3"
		},
		{
			"bufferView":50,
			"componentType":5126,
			"count":8,
			"type":"VEC3"
		},
		{
			"bufferView":51,
			"componentType":5126,
			"count":8,
			"type":"VEC2"
		},
		{
			"bufferView":52,
			"componentType":5126,
			"count":8,
			"type":"VEC4"
		},
		{
			"bufferView":53,
			"componentType":5126,
			"count":40,
			"max":[
				0.14856651425361633,
				-0.007175649981945753,
				0.9144001603126526
			],
			"min":[
				-0.017232416197657585,
				-0.019034788012504578,
				-0.9143998026847839
			],
			"type":"VEC3"
		},
		{
			"bufferView":54,
			"componentType":5126,
			"count":40,
			"type":"VEC3"
		},
		{
			"bufferView":55,
			"componentType":5126,
			"count":40,
			"type":"VEC2"
		},
		{
			"bufferView":56,
			"componentType":5126,
			"count":40,
			"type":"VEC4"
		},
		{
			"bufferView":57,
			"componentType":5123,
			"count":78,
			"type":"SCALAR"
		},
		{
			"bufferView":58,
			"componentType":5126,
			"count":1164,
			"max":[
				0.14922499656677246,
				2.0828006267547607,
				0.9652000069618225
			],
			"min":[
				-0.013229621574282646,
				-0.01904992014169693,
				-0.9652002453804016
			],
			"type":"VEC3"
		},
		{
			"bufferView":59,
			"componentType":5126,
			"count":1164,
			"type":"VEC3"
		},
		{
			"bufferView":60,
			"componentType":5126,
			"count":1164,
			"type":"VEC2"
		},
		{
			"bufferView":61,
			"componentType":5126,
			"count":1164,
			"type":"VEC4"
		},
		{
			"bufferView":62,
			"componentType":5123,
			"count":2988,
			"type":"SCALAR"
		}
	],
	"bufferViews":[
		{
			"buffer":0,
			"byteLength":7776,
			"byteOffset":0,
			"target":34962
		},
		{
			"buffer":0,
			"byteLength":7776,
			"byteOffset":7776,
			"target":34962
		},
		{
			"buffer":0,
			"byteLength":5184,
			"byteOffset":15552,
			"target":34962
		},
		{
			"buffer":0,
			"byteLength":10368,
			"byteOffset":20736,
			"target":34962
		},
		{
			"buffer":0,
			"byteLength":4824,
			"byteOffset":31104,
			"target":34963
		},
		{
			"buffer":0,
			"byteLength":576,
			"byteOffset":35928,
			"target":34962
		},
		{
			"buffer":0,
			"byteLength":576,
			"byteOffset":36504,
			"target":34962
		},
		{
			"buffer":0,
			"byteLength":384,
			"byteOffset":37080,
			"target":34962
		},
		{
			"buffer":0,
			"byteLength":768,
			"byteOffset":37464,
			"target":34962
		},
		{
			"buffer":0,
			"byteLength":240,
			"byteOffset":38232,
			"target":34963
		},
		{
			"buffer":0,
			"byteLength":4164,
			"byteOffset":38472,
			"target":34962
		},
		{
			"buffer":0,
			"byteLength":4164,
			"byteOffset":42636,
			"target":34962
		},
		{
			"buffer":0,
			"byteLength":2776,
			"byteOffset":46800,
			"target":34962
		},
		{
			"buffer":0,
			"byteLength":5552,
			"byteOffset":49576,
			"target":34962
		},
		{
			"buffer":0,
			"byteLength":1944,
			"byteOffset":55128,
			"target":34963
		},
		{
			"buffer":0,
			"byteLength":96,
			"byteOffset":57072,
			"target":34962
		},
		{
			"buffer":0,
			"byteLength":96,
			"byteOffset":57168,
			"target":34962
		},
		{
			"buffer":0,
			"byteLength":64,
			"byteOffset":57264,
			"target":34962
		},
		{
			"buffer":0,
			"byteLength":128,
			"byteOffset":57328,
			"target":34962
		},
		{
			"buffer":0,
			"byteLength":24,
			"byteOffset":57456,
			"target":34963
		},
		{
			"buffer":0,
			"byteLength":1536,
			"byteOffset":57480,
			"target":34962
		},
		{
			"buffer":0,
			"byteLength":1536,
			"byteOffset":59016,
			"target":34962
		},
		{
			"buffer":0,
			"byteLength":1024,
			"byteOffset":60552,
			"target":34962
		},
		{
			"buffer":0,
			"byteLength":2048,
			"byteOffset":61576,
			"target":34962
		},
		{
			"buffer":0,
			"byteLength":384,
			"byteOffset":63624,
			"target":34963
		},
		{
			"buffer":0,
			"byteLength":96,
			"byteOffset":64008,
			"target":34962
		},
		{
			"buffer":0,
			"byteLength":96,
			"byteOffset":64104,
			"target":34962
		},
		{
			"buffer":0,
			"byteLength":64,
			"byteOffset":64200,
			"target":34962
		},
		{
			"buffer":0,
			"byteLength":128,
			"byteOffset":64264,
			"target":34962
		},
		{
			"buffer":0,
			"byteLength":7776,
			"byteOffset":64392,
			"target":34962
		},
		{
			"buffer":0,
			"byteLength":7776,
			"byteOffset":72168,
			"target":34962
		},
		{
			"buffer":0,
			"byteLength":5184,
			"byteOffset":79944,
			"target":34962
		},
		{
			"buffer":0,
			"byteLength":10368,
			"byteOffset":85128,
			"target":34962
		},
		{
			"buffer":0,
			"byteLength":4824,
			"byteOffset":95496,
			"target":34963
		},
		{
			"buffer":0,
			"byteLength":4164,
			"byteOffset":100320,
			"target":34962
		},
		{
			"buffer":0,
			"byteLength":4164,
			"byteOffset":104484,
			"target":34962
		},
		{
			"buffer":0,
			"byteLength":2776,
			"byteOffset":108648,
			"target":34962
		},
		{
			"buffer":0,
			"byteLength":5552,
			"byteOffset":111424,
			"target":34962
		},
		{
			"buffer":0,
			"byteLength":1944,
			"byteOffset":116976,
			"target":34963
		},
		{
			"buffer":0,
			"byteLength":96,
			"byteOffset":118920,
			"target":34962
		},
		{
			"buffer":0,
			"byteLength":96,
			"byteOffset":119016,
			"target":34962
		},
		{
			"buffer":0,
			"byteLength":64,
			"byteOffset":119112,
			"target":34962
		},
		{
			"buffer":0,
			"byteLength":128,
			"byteOffset":119176,
			"target":34962
		},
		{
			"buffer":0,
			"byteLength":24,
			"byteOffset":119304,
			"target":34963
		},
		{
			"buffer":0,
			"byteLength":1536,
			"byteOffset":119328,
			"target":34962
		},
		{
			"buffer":0,
			"byteLength":1536,
			"byteOffset":120864,
			"target":34962
		},
		{
			"buffer":0,
			"byteLength":1024,
			"byteOffset":122400,
			"target":34962
		},
		{
			"buffer":0,
			"byteLength":2048,
			"byteOffset":123424,
			"target":34962
		},
		{
			"buffer":0,
			"byteLength":384,
			"byteOffset":125472,
			"target":34963
		},
		{
			"buffer":0,
			"byteLength":96,
			"byteOffset":125856,
			"target":34962
		},
		{
			"buffer":0,
			"byteLength":96,
			"byteOffset":125952,
			"target":34962
		},
		{
			"buffer":0,
			"byteLength":64,
			"byteOffset":126048,
			"target":34962
		},
		{
			"buffer":0,
			"byteLength":128,
			"byteOffset":126112,
			"target":34962
		},
		{
			"buffer":0,
			"byteLength":480,
			"byteOffset":126240,
			"target":34962
		},
		{
			"buffer":0,
			"byteLength":480,
			"byteOffset":126720,
			"target":34962
		},
		{
			"buffer":0,
			"byteLength":320,
			"byteOffset":127200,
			"target":34962
		},
		{
			"buffer":0,
			"byteLength":640,
			"byteOffset":127520,
			"target":34962
		},
		{
			"buffer":0,
			"byteLength":156,
			"byteOffset":128160,
			"target":34963
		},
		{
			"buffer":0,
			"byteLength":13968,
			"byteOffset":128316,
			"target":34962
		},
		{
			"buffer":0,
			"byteLength":13968,
			"byteOffset":142284,
			"target":34962
		},
		{
			"buffer":0,
			"byteLength":9312,
			"byteOffset":156252,
			"target":34962
		},
		{
			"buffer":0,
			"byteLength":18624,
			"byteOffset":165564,
			"target":34962
		},
		{
			"buffer":0,
			"byteLength":5976,
			"byteOffset":184188,
			"target":34963
		}
	],
	"buffers":[
		{
			"byteLength":190164,
			"uri":"DoubleSmallWindow-6798c871576f1edae82d3aaea93ed223.bin"
		}
	]
}
