{
	"asset":{
		"generator":"Khronos glTF Blender I/O v3.6.27",
		"version":"2.0"
	},
	"scene":0,
	"scenes":[
		{
			"extras":{
				"uuid":"289b08bd-97e6-4b9c-9d7a-6c695c18e0e7",
				"assets reported":{}
			},
			"name":"Scene",
			"nodes":[
				6
			]
		}
	],
	"nodes":[
		{
			"mesh":0,
			"name":"handle_A_014",
			"translation":[
				0.0349268913269043,
				-0.09592573344707489,
				0.8406173586845398
			]
		},
		{
			"mesh":1,
			"name":"striker_014",
			"translation":[
				0.0349268913269043,
				-0.09592573344707489,
				0.8342671990394592
			]
		},
		{
			"children":[
				0,
				1
			],
			"mesh":2,
			"name":"door_A_014",
			"translation":[
				-0.006947040557861328,
				1.0611257553100586,
				-0.9131178259849548
			]
		},
		{
			"mesh":3,
			"name":"handle_B_014",
			"translation":[
				0.034926414489746094,
				-0.09592552483081818,
				-0.840617299079895
			]
		},
		{
			"children":[
				3
			],
			"mesh":4,
			"name":"door_B_014",
			"translation":[
				-0.006947040557861328,
				1.0611257553100586,
				0.9131507277488708
			]
		},
		{
			"mesh":5,
			"name":"floor_plate_double_014"
		},
		{
			"children":[
				2,
				4,
				5
			],
			"mesh":6,
			"name":"frame_014",
			"translation":[
				0,
				0.019050000235438347,
				0
			]
		}
	],
	"materials":[
		{
			"doubleSided":true,
			"name":"door_single_mat",
			"pbrMetallicRoughness":{}
		},
		{
			"doubleSided":true,
			"name":"door_double_mat",
			"pbrMetallicRoughness":{}
		},
		{
			"doubleSided":true,
			"name":"props_mat",
			"pbrMetallicRoughness":{}
		},
		{
			"doubleSided":true,
			"name":"double_frame_mat",
			"pbrMetallicRoughness":{}
		}
	],
	"meshes":[
		{
			"name":"Cylinder.030",
			"primitives":[
				{
					"attributes":{
						"POSITION":0,
						"NORMAL":1,
						"TEXCOORD_0":2,
						"TANGENT":3
					},
					"indices":4,
					"material":0
				}
			]
		},
		{
			"name":"Cylinder.031",
			"primitives":[
				{
					"attributes":{
						"POSITION":5,
						"NORMAL":6,
						"TEXCOORD_0":7,
						"TANGENT":8
					},
					"indices":9,
					"material":0
				}
			]
		},
		{
			"name":"Cylinder.005",
			"primitives":[
				{
					"attributes":{
						"POSITION":10,
						"NORMAL":11,
						"TEXCOORD_0":12,
						"TANGENT":13
					},
					"indices":14,
					"material":1
				}
			]
		},
		{
			"name":"Cylinder.033",
			"primitives":[
				{
					"attributes":{
						"POSITION":15,
						"NORMAL":16,
						"TEXCOORD_0":17,
						"TANGENT":18
					},
					"indices":19,
					"material":0
				}
			]
		},
		{
			"name":"Cylinder.032",
			"primitives":[
				{
					"attributes":{
						"POSITION":20,
						"NORMAL":21,
						"TEXCOORD_0":22,
						"TANGENT":23
					},
					"indices":24,
					"material":1
				}
			]
		},
		{
			"name":"Cube.031",
			"primitives":[
				{
					"attributes":{
						"POSITION":25,
						"NORMAL":26,
						"TEXCOORD_0":27,
						"TANGENT":28
					},
					"indices":29,
					"material":2
				}
			]
		},
		{
			"name":"Plane.018",
			"primitives":[
				{
					"attributes":{
						"POSITION":30,
						"NORMAL":31,
						"TEXCOORD_0":32,
						"TANGENT":33
					},
					"indices":34,
					"material":3
				}
			]
		}
	],
	"accessors":[
		{
			"bufferView":0,
			"componentType":5126,
			"count":648,
			"max":[
				0.06974401324987411,
				0.03333750367164612,
				0.03333751857280731
			],
			"min":[
				-0.08120448142290115,
				-0.03333749994635582,
				-0.09309753030538559
			],
			"type":"VEC3"
		},
		{
			"bufferView":1,
			"componentType":5126,
			"count":648,
			"type":"VEC3"
		},
		{
			"bufferView":2,
			"componentType":5126,
			"count":648,
			"type":"VEC2"
		},
		{
			"bufferView":3,
			"componentType":5126,
			"count":648,
			"type":"VEC4"
		},
		{
			"bufferView":4,
			"componentType":5123,
			"count":2412,
			"type":"SCALAR"
		},
		{
			"bufferView":5,
			"componentType":5126,
			"count":48,
			"max":[
				0.007912627421319485,
				0.015641435980796814,
				0.08524403721094131
			],
			"min":[
				-0.013459582813084126,
				-0.015641432255506516,
				0.06245921924710274
			],
			"type":"VEC3"
		},
		{
			"bufferView":6,
			"componentType":5126,
			"count":48,
			"type":"VEC3"
		},
		{
			"bufferView":7,
			"componentType":5126,
			"count":48,
			"type":"VEC2"
		},
		{
			"bufferView":8,
			"componentType":5126,
			"count":48,
			"type":"VEC4"
		},
		{
			"bufferView":9,
			"componentType":5123,
			"count":120,
			"type":"SCALAR"
		},
		{
			"bufferView":10,
			"componentType":5126,
			"count":339,
			"max":[
				0.05139792710542679,
				0.9696938395500183,
				0.910957932472229
			],
			"min":[
				-0.00627874257043004,
				-1.0611258745193481,
				-0.00628479802981019
			],
			"type":"VEC3"
		},
		{
			"bufferView":11,
			"componentType":5126,
			"count":339,
			"type":"VEC3"
		},
		{
			"bufferView":12,
			"componentType":5126,
			"count":339,
			"type":"VEC2"
		},
		{
			"bufferView":13,
			"componentType":5126,
			"count":339,
			"type":"VEC4"
		},
		{
			"bufferView":14,
			"componentType":5123,
			"count":936,
			"type":"SCALAR"
		},
		{
			"bufferView":15,
			"componentType":5126,
			"count":648,
			"max":[
				0.06974401324987411,
				0.033337514847517014,
				0.09309752285480499
			],
			"min":[
				-0.08120448887348175,
				-0.03333750739693642,
				-0.033337511122226715
			],
			"type":"VEC3"
		},
		{
			"bufferView":16,
			"componentType":5126,
			"count":648,
			"type":"VEC3"
		},
		{
			"bufferView":17,
			"componentType":5126,
			"count":648,
			"type":"VEC2"
		},
		{
			"bufferView":18,
			"componentType":5126,
			"count":648,
			"type":"VEC4"
		},
		{
			"bufferView":19,
			"componentType":5123,
			"count":2412,
			"type":"SCALAR"
		},
		{
			"bufferView":20,
			"componentType":5126,
			"count":339,
			"max":[
				0.05139771103858948,
				0.9696939587593079,
				0.006284784991294146
			],
			"min":[
				-0.00627874257043004,
				-1.0611257553100586,
				-0.910957932472229
			],
			"type":"VEC3"
		},
		{
			"bufferView":21,
			"componentType":5126,
			"count":339,
			"type":"VEC3"
		},
		{
			"bufferView":22,
			"componentType":5126,
			"count":339,
			"type":"VEC2"
		},
		{
			"bufferView":23,
			"componentType":5126,
			"count":339,
			"type":"VEC4"
		},
		{
			"bufferView":24,
			"componentType":5123,
			"count":936,
			"type":"SCALAR"
		},
		{
			"bufferView":25,
			"componentType":5126,
			"count":40,
			"max":[
				0.14856651425361633,
				-0.007175649981945753,
				0.9144001603126526
			],
			"min":[
				-0.017232416197657585,
				-0.019034788012504578,
				-0.9143998026847839
			],
			"type":"VEC3"
		},
		{
			"bufferView":26,
			"componentType":5126,
			"count":40,
			"type":"VEC3"
		},
		{
			"bufferView":27,
			"componentType":5126,
			"count":40,
			"type":"VEC2"
		},
		{
			"bufferView":28,
			"componentType":5126,
			"count":40,
			"type":"VEC4"
		},
		{
			"bufferView":29,
			"componentType":5123,
			"count":78,
			"type":"SCALAR"
		},
		{
			"bufferView":30,
			"componentType":5126,
			"count":1164,
			"max":[
				0.14922499656677246,
				2.0828006267547607,
				0.9652000069618225
			],
			"min":[
				-0.013229621574282646,
				-0.01904992014169693,
				-0.9652002453804016
			],
			"type":"VEC3"
		},
		{
			"bufferView":31,
			"componentType":5126,
			"count":1164,
			"type":"VEC3"
		},
		{
			"bufferView":32,
			"componentType":5126,
			"count":1164,
			"type":"VEC2"
		},
		{
			"bufferView":33,
			"componentType":5126,
			"count":1164,
			"type":"VEC4"
		},
		{
			"bufferView":34,
			"componentType":5123,
			"count":2988,
			"type":"SCALAR"
		}
	],
	"bufferViews":[
		{
			"buffer":0,
			"byteLength":7776,
			"byteOffset":0,
			"target":34962
		},
		{
			"buffer":0,
			"byteLength":7776,
			"byteOffset":7776,
			"target":34962
		},
		{
			"buffer":0,
			"byteLength":5184,
			"byteOffset":15552,
			"target":34962
		},
		{
			"buffer":0,
			"byteLength":10368,
			"byteOffset":20736,
			"target":34962
		},
		{
			"buffer":0,
			"byteLength":4824,
			"byteOffset":31104,
			"target":34963
		},
		{
			"buffer":0,
			"byteLength":576,
			"byteOffset":35928,
			"target":34962
		},
		{
			"buffer":0,
			"byteLength":576,
			"byteOffset":36504,
			"target":34962
		},
		{
			"buffer":0,
			"byteLength":384,
			"byteOffset":37080,
			"target":34962
		},
		{
			"buffer":0,
			"byteLength":768,
			"byteOffset":37464,
			"target":34962
		},
		{
			"buffer":0,
			"byteLength":240,
			"byteOffset":38232,
			"target":34963
		},
		{
			"buffer":0,
			"byteLength":4068,
			"byteOffset":38472,
			"target":34962
		},
		{
			"buffer":0,
			"byteLength":4068,
			"byteOffset":42540,
			"target":34962
		},
		{
			"buffer":0,
			"byteLength":2712,
			"byteOffset":46608,
			"target":34962
		},
		{
			"buffer":0,
			"byteLength":5424,
			"byteOffset":49320,
			"target":34962
		},
		{
			"buffer":0,
			"byteLength":1872,
			"byteOffset":54744,
			"target":34963
		},
		{
			"buffer":0,
			"byteLength":7776,
			"byteOffset":56616,
			"target":34962
		},
		{
			"buffer":0,
			"byteLength":7776,
			"byteOffset":64392,
			"target":34962
		},
		{
			"buffer":0,
			"byteLength":5184,
			"byteOffset":72168,
			"target":34962
		},
		{
			"buffer":0,
			"byteLength":10368,
			"byteOffset":77352,
			"target":34962
		},
		{
			"buffer":0,
			"byteLength":4824,
			"byteOffset":87720,
			"target":34963
		},
		{
			"buffer":0,
			"byteLength":4068,
			"byteOffset":92544,
			"target":34962
		},
		{
			"buffer":0,
			"byteLength":4068,
			"byteOffset":96612,
			"target":34962
		},
		{
			"buffer":0,
			"byteLength":2712,
			"byteOffset":100680,
			"target":34962
		},
		{
			"buffer":0,
			"byteLength":5424,
			"byteOffset":103392,
			"target":34962
		},
		{
			"buffer":0,
			"byteLength":1872,
			"byteOffset":108816,
			"target":34963
		},
		{
			"buffer":0,
			"byteLength":480,
			"byteOffset":110688,
			"target":34962
		},
		{
			"buffer":0,
			"byteLength":480,
			"byteOffset":111168,
			"target":34962
		},
		{
			"buffer":0,
			"byteLength":320,
			"byteOffset":111648,
			"target":34962
		},
		{
			"buffer":0,
			"byteLength":640,
			"byteOffset":111968,
			"target":34962
		},
		{
			"buffer":0,
			"byteLength":156,
			"byteOffset":112608,
			"target":34963
		},
		{
			"buffer":0,
			"byteLength":13968,
			"byteOffset":112764,
			"target":34962
		},
		{
			"buffer":0,
			"byteLength":13968,
			"byteOffset":126732,
			"target":34962
		},
		{
			"buffer":0,
			"byteLength":9312,
			"byteOffset":140700,
			"target":34962
		},
		{
			"buffer":0,
			"byteLength":18624,
			"byteOffset":150012,
			"target":34962
		},
		{
			"buffer":0,
			"byteLength":5976,
			"byteOffset":168636,
			"target":34963
		}
	],
	"buffers":[
		{
			"byteLength":174612,
			"uri":"DoubleNoWindow-3782ed1adcbbae997ce0f5be98219136.bin"
		}
	]
}
