{
	"asset":{
		"generator":"Khronos glTF Blender I/O v3.6.27",
		"version":"2.0"
	},
	"scene":0,
	"scenes":[
		{
			"extras":{
				"assets used":{},
				"uuid":"255d3680-4b66-4fd8-ad69-30c74e06cab9",
				"assets reported":{}
			},
			"name":"Scene",
			"nodes":[
				0
			]
		}
	],
	"nodes":[
		{
			"mesh":0,
			"name":"Frame",
			"scale":[
				0.050000011920928955,
				0.050000011920928955,
				0.050000011920928955
			],
			"translation":[
				0.019999999552965164,
				0.04999999701976776,
				0
			]
		}
	],
	"materials":[
		{
			"doubleSided":true,
			"name":"Frame",
			"pbrMetallicRoughness":{
				"baseColorFactor":[
					0.8373392224311829,
					0.8136562705039978,
					0.6006612181663513,
					1
				],
				"metallicFactor":0,
				"roughnessFactor":0.8604204058647156
			}
		}
	],
	"meshes":[
		{
			"name":"Cube",
			"primitives":[
				{
					"attributes":{
						"POSITION":0,
						"NORMAL":1,
						"TEXCOORD_0":2,
						"TANGENT":3
					},
					"indices":4,
					"material":0
				}
			]
		}
	],
	"accessors":[
		{
			"bufferView":0,
			"componentType":5126,
			"count":72,
			"max":[
				22.999996185302734,
				39.99999237060547,
				1
			],
			"min":[
				-23.999998092651367,
				-1,
				-1
			],
			"type":"VEC3"
		},
		{
			"bufferView":1,
			"componentType":5126,
			"count":72,
			"type":"VEC3"
		},
		{
			"bufferView":2,
			"componentType":5126,
			"count":72,
			"type":"VEC2"
		},
		{
			"bufferView":3,
			"componentType":5126,
			"count":72,
			"type":"VEC4"
		},
		{
			"bufferView":4,
			"componentType":5123,
			"count":156,
			"type":"SCALAR"
		}
	],
	"bufferViews":[
		{
			"buffer":0,
			"byteLength":864,
			"byteOffset":0,
			"target":34962
		},
		{
			"buffer":0,
			"byteLength":864,
			"byteOffset":864,
			"target":34962
		},
		{
			"buffer":0,
			"byteLength":576,
			"byteOffset":1728,
			"target":34962
		},
		{
			"buffer":0,
			"byteLength":1152,
			"byteOffset":2304,
			"target":34962
		},
		{
			"buffer":0,
			"byteLength":312,
			"byteOffset":3456,
			"target":34963
		}
	],
	"buffers":[
		{
			"byteLength":3768,
			"uri":"DoubleFrame-ee2fb4d0006e2321c480a80d3f340152.bin"
		}
	]
}
