{
	"asset":{
		"generator":"Khronos glTF Blender I/O v3.6.27",
		"version":"2.0"
	},
	"scene":0,
	"scenes":[
		{
			"extras":{
				"uuid":"972d6450-b5f9-45aa-9509-ed34c001f8ff",
				"assets reported":{}
			},
			"name":"Scene",
			"nodes":[
				0,
				1
			]
		}
	],
	"nodes":[
		{
			"mesh":0,
			"name":"Handle",
			"scale":[
				16,
				0.627599835395813,
				0.627599835395813
			]
		},
		{
			"mesh":1,
			"name":"Supports",
			"scale":[
				0.36000001430511475,
				0.36000001430511475,
				0.8280000686645508
			],
			"translation":[
				-10,
				0,
				1.399999976158142
			]
		}
	],
	"materials":[
		{
			"doubleSided":true,
			"name":"MatteMetall",
			"pbrMetallicRoughness":{
				"baseColorFactor":[
					0.33033448457717896,
					0.25735220313072205,
					0.1267496794462204,
					1
				],
				"metallicFactor":0,
				"roughnessFactor":0.8700787425041199
			}
		},
		{
			"doubleSided":true,
			"name":"Metall",
			"pbrMetallicRoughness":{
				"baseColorFactor":[
					0.800000011920929,
					0.800000011920929,
					0.800000011920929,
					1
				],
				"metallicFactor":0.7952755689620972,
				"roughnessFactor":0.15354329347610474
			}
		}
	],
	"meshes":[
		{
			"name":"Cube.001",
			"primitives":[
				{
					"attributes":{
						"POSITION":0,
						"NORMAL":1,
						"TEXCOORD_0":2,
						"TANGENT":3
					},
					"indices":4,
					"material":0
				}
			]
		},
		{
			"name":"Cube.004",
			"primitives":[
				{
					"attributes":{
						"POSITION":5,
						"NORMAL":6,
						"TEXCOORD_0":7,
						"TANGENT":8
					},
					"indices":9,
					"material":1
				}
			]
		}
	],
	"accessors":[
		{
			"bufferView":0,
			"componentType":5126,
			"count":24,
			"max":[
				0.9375,
				1,
				1
			],
			"min":[
				-0.9375,
				-1,
				-1
			],
			"type":"VEC3"
		},
		{
			"bufferView":1,
			"componentType":5126,
			"count":24,
			"type":"VEC3"
		},
		{
			"bufferView":2,
			"componentType":5126,
			"count":24,
			"type":"VEC2"
		},
		{
			"bufferView":3,
			"componentType":5126,
			"count":24,
			"type":"VEC4"
		},
		{
			"bufferView":4,
			"componentType":5123,
			"count":48,
			"type":"SCALAR"
		},
		{
			"bufferView":5,
			"componentType":5126,
			"count":72,
			"max":[
				56.52777862548828,
				1,
				1.8695652484893799
			],
			"min":[
				-1,
				-1,
				-1
			],
			"type":"VEC3"
		},
		{
			"bufferView":6,
			"componentType":5126,
			"count":72,
			"type":"VEC3"
		},
		{
			"bufferView":7,
			"componentType":5126,
			"count":72,
			"type":"VEC2"
		},
		{
			"bufferView":8,
			"componentType":5126,
			"count":72,
			"type":"VEC4"
		},
		{
			"bufferView":9,
			"componentType":5123,
			"count":108,
			"type":"SCALAR"
		}
	],
	"bufferViews":[
		{
			"buffer":0,
			"byteLength":288,
			"byteOffset":0,
			"target":34962
		},
		{
			"buffer":0,
			"byteLength":288,
			"byteOffset":288,
			"target":34962
		},
		{
			"buffer":0,
			"byteLength":192,
			"byteOffset":576,
			"target":34962
		},
		{
			"buffer":0,
			"byteLength":384,
			"byteOffset":768,
			"target":34962
		},
		{
			"buffer":0,
			"byteLength":96,
			"byteOffset":1152,
			"target":34963
		},
		{
			"buffer":0,
			"byteLength":864,
			"byteOffset":1248,
			"target":34962
		},
		{
			"buffer":0,
			"byteLength":864,
			"byteOffset":2112,
			"target":34962
		},
		{
			"buffer":0,
			"byteLength":576,
			"byteOffset":2976,
			"target":34962
		},
		{
			"buffer":0,
			"byteLength":1152,
			"byteOffset":3552,
			"target":34962
		},
		{
			"buffer":0,
			"byteLength":216,
			"byteOffset":4704,
			"target":34963
		}
	],
	"buffers":[
		{
			"byteLength":4920,
			"uri":"Railing-07cb144a3dd898023584aac27d4f2ca9.bin"
		}
	]
}
