{
	"asset":{
		"generator":"Khronos glTF Blender I/O v3.6.27",
		"version":"2.0"
	},
	"scene":0,
	"scenes":[
		{
			"extras":{
				"uuid":"3b68735e-4474-4d9e-bc63-896bb2d1d5cc",
				"assets reported":{}
			},
			"name":"Scene",
			"nodes":[
				4
			]
		}
	],
	"nodes":[
		{
			"mesh":0,
			"name":"handle_010",
			"translation":[
				0.034926868975162506,
				-0.09592578560113907,
				0.8406172394752502
			]
		},
		{
			"mesh":1,
			"name":"striker_010",
			"translation":[
				0.034926868975162506,
				-0.09592578560113907,
				0.8342671990394592
			]
		},
		{
			"children":[
				0,
				1
			],
			"mesh":2,
			"name":"door_010",
			"translation":[
				-0.006947306450456381,
				1.0611257553100586,
				-0.9131178259849548
			]
		},
		{
			"mesh":3,
			"name":"floor_plate_010"
		},
		{
			"children":[
				2,
				3
			],
			"mesh":4,
			"name":"frame_010",
			"translation":[
				0,
				0.019050000235438347,
				0.30480000376701355
			]
		}
	],
	"materials":[
		{
			"doubleSided":true,
			"name":"door_single_mat",
			"pbrMetallicRoughness":{}
		},
		{
			"doubleSided":true,
			"name":"props_mat",
			"pbrMetallicRoughness":{}
		},
		{
			"doubleSided":true,
			"name":"frame_mat",
			"pbrMetallicRoughness":{}
		}
	],
	"meshes":[
		{
			"name":"Cylinder.016",
			"primitives":[
				{
					"attributes":{
						"POSITION":0,
						"NORMAL":1,
						"TEXCOORD_0":2,
						"TANGENT":3
					},
					"indices":4,
					"material":0
				}
			]
		},
		{
			"name":"Cylinder.017",
			"primitives":[
				{
					"attributes":{
						"POSITION":5,
						"NORMAL":6,
						"TEXCOORD_0":7,
						"TANGENT":8
					},
					"indices":9,
					"material":0
				}
			]
		},
		{
			"name":"Cylinder.003",
			"primitives":[
				{
					"attributes":{
						"POSITION":10,
						"NORMAL":11,
						"TEXCOORD_0":12,
						"TANGENT":13
					},
					"indices":14,
					"material":0
				}
			]
		},
		{
			"name":"Cube.002",
			"primitives":[
				{
					"attributes":{
						"POSITION":15,
						"NORMAL":16,
						"TEXCOORD_0":17,
						"TANGENT":18
					},
					"indices":19,
					"material":1
				}
			]
		},
		{
			"name":"Plane.015",
			"primitives":[
				{
					"attributes":{
						"POSITION":20,
						"NORMAL":21,
						"TEXCOORD_0":22,
						"TANGENT":23
					},
					"indices":24,
					"material":2
				}
			]
		}
	],
	"accessors":[
		{
			"bufferView":0,
			"componentType":5126,
			"count":648,
			"max":[
				0.06974401324987411,
				0.03333750367164612,
				0.03333751857280731
			],
			"min":[
				-0.08120448142290115,
				-0.03333749994635582,
				-0.09309753030538559
			],
			"type":"VEC3"
		},
		{
			"bufferView":1,
			"componentType":5126,
			"count":648,
			"type":"VEC3"
		},
		{
			"bufferView":2,
			"componentType":5126,
			"count":648,
			"type":"VEC2"
		},
		{
			"bufferView":3,
			"componentType":5126,
			"count":648,
			"type":"VEC4"
		},
		{
			"bufferView":4,
			"componentType":5123,
			"count":2412,
			"type":"SCALAR"
		},
		{
			"bufferView":5,
			"componentType":5126,
			"count":48,
			"max":[
				0.007912627421319485,
				0.015641435980796814,
				0.08524403721094131
			],
			"min":[
				-0.013459582813084126,
				-0.015641432255506516,
				0.06245921924710274
			],
			"type":"VEC3"
		},
		{
			"bufferView":6,
			"componentType":5126,
			"count":48,
			"type":"VEC3"
		},
		{
			"bufferView":7,
			"componentType":5126,
			"count":48,
			"type":"VEC2"
		},
		{
			"bufferView":8,
			"componentType":5126,
			"count":48,
			"type":"VEC4"
		},
		{
			"bufferView":9,
			"componentType":5123,
			"count":120,
			"type":"SCALAR"
		},
		{
			"bufferView":10,
			"componentType":5126,
			"count":339,
			"max":[
				0.05139792710542679,
				0.9696938395500183,
				0.910957932472229
			],
			"min":[
				-0.00627874257043004,
				-1.0611258745193481,
				-0.00628479802981019
			],
			"type":"VEC3"
		},
		{
			"bufferView":11,
			"componentType":5126,
			"count":339,
			"type":"VEC3"
		},
		{
			"bufferView":12,
			"componentType":5126,
			"count":339,
			"type":"VEC2"
		},
		{
			"bufferView":13,
			"componentType":5126,
			"count":339,
			"type":"VEC4"
		},
		{
			"bufferView":14,
			"componentType":5123,
			"count":936,
			"type":"SCALAR"
		},
		{
			"bufferView":15,
			"componentType":5126,
			"count":40,
			"max":[
				0.14856651425361633,
				-0.007175798993557692,
				1.8110016242189886e-07
			],
			"min":[
				-0.017232416197657585,
				-0.019034788012504578,
				-0.9143998026847839
			],
			"type":"VEC3"
		},
		{
			"bufferView":16,
			"componentType":5126,
			"count":40,
			"type":"VEC3"
		},
		{
			"bufferView":17,
			"componentType":5126,
			"count":40,
			"type":"VEC2"
		},
		{
			"bufferView":18,
			"componentType":5126,
			"count":40,
			"type":"VEC4"
		},
		{
			"bufferView":19,
			"componentType":5123,
			"count":78,
			"type":"SCALAR"
		},
		{
			"bufferView":20,
			"componentType":5126,
			"count":732,
			"max":[
				0.14922499656677246,
				2.0828001499176025,
				0.05080000311136246
			],
			"min":[
				-0.013229621574282646,
				-0.01904992014169693,
				-0.9652002453804016
			],
			"type":"VEC3"
		},
		{
			"bufferView":21,
			"componentType":5126,
			"count":732,
			"type":"VEC3"
		},
		{
			"bufferView":22,
			"componentType":5126,
			"count":732,
			"type":"VEC2"
		},
		{
			"bufferView":23,
			"componentType":5126,
			"count":732,
			"type":"VEC4"
		},
		{
			"bufferView":24,
			"componentType":5123,
			"count":1848,
			"type":"SCALAR"
		}
	],
	"bufferViews":[
		{
			"buffer":0,
			"byteLength":7776,
			"byteOffset":0,
			"target":34962
		},
		{
			"buffer":0,
			"byteLength":7776,
			"byteOffset":7776,
			"target":34962
		},
		{
			"buffer":0,
			"byteLength":5184,
			"byteOffset":15552,
			"target":34962
		},
		{
			"buffer":0,
			"byteLength":10368,
			"byteOffset":20736,
			"target":34962
		},
		{
			"buffer":0,
			"byteLength":4824,
			"byteOffset":31104,
			"target":34963
		},
		{
			"buffer":0,
			"byteLength":576,
			"byteOffset":35928,
			"target":34962
		},
		{
			"buffer":0,
			"byteLength":576,
			"byteOffset":36504,
			"target":34962
		},
		{
			"buffer":0,
			"byteLength":384,
			"byteOffset":37080,
			"target":34962
		},
		{
			"buffer":0,
			"byteLength":768,
			"byteOffset":37464,
			"target":34962
		},
		{
			"buffer":0,
			"byteLength":240,
			"byteOffset":38232,
			"target":34963
		},
		{
			"buffer":0,
			"byteLength":4068,
			"byteOffset":38472,
			"target":34962
		},
		{
			"buffer":0,
			"byteLength":4068,
			"byteOffset":42540,
			"target":34962
		},
		{
			"buffer":0,
			"byteLength":2712,
			"byteOffset":46608,
			"target":34962
		},
		{
			"buffer":0,
			"byteLength":5424,
			"byteOffset":49320,
			"target":34962
		},
		{
			"buffer":0,
			"byteLength":1872,
			"byteOffset":54744,
			"target":34963
		},
		{
			"buffer":0,
			"byteLength":480,
			"byteOffset":56616,
			"target":34962
		},
		{
			"buffer":0,
			"byteLength":480,
			"byteOffset":57096,
			"target":34962
		},
		{
			"buffer":0,
			"byteLength":320,
			"byteOffset":57576,
			"target":34962
		},
		{
			"buffer":0,
			"byteLength":640,
			"byteOffset":57896,
			"target":34962
		},
		{
			"buffer":0,
			"byteLength":156,
			"byteOffset":58536,
			"target":34963
		},
		{
			"buffer":0,
			"byteLength":8784,
			"byteOffset":58692,
			"target":34962
		},
		{
			"buffer":0,
			"byteLength":8784,
			"byteOffset":67476,
			"target":34962
		},
		{
			"buffer":0,
			"byteLength":5856,
			"byteOffset":76260,
			"target":34962
		},
		{
			"buffer":0,
			"byteLength":11712,
			"byteOffset":82116,
			"target":34962
		},
		{
			"buffer":0,
			"byteLength":3696,
			"byteOffset":93828,
			"target":34963
		}
	],
	"buffers":[
		{
			"byteLength":97524,
			"uri":"SingleNoWindow-7a976934b8b88bc4ea2baadebd9aaeea.bin"
		}
	]
}
