{
	"asset":{
		"generator":"Khronos glTF Blender I/O v3.6.27",
		"version":"2.0"
	},
	"extensionsUsed":[
		"KHR_materials_transmission",
		"KHR_materials_ior"
	],
	"scene":0,
	"scenes":[
		{
			"extras":{
				"uuid":"62883df2-71cc-4608-9582-499bf65432f6",
				"assets reported":{}
			},
			"name":"Scene",
			"nodes":[
				4
			]
		}
	],
	"nodes":[
		{
			"mesh":0,
			"name":"handle_003",
			"translation":[
				0.0349271297454834,
				-0.09592578560113907,
				0.8406173586845398
			]
		},
		{
			"mesh":1,
			"name":"striker_003",
			"translation":[
				0.0349271297454834,
				-0.09592578560113907,
				0.8342673182487488
			]
		},
		{
			"children":[
				0,
				1
			],
			"mesh":2,
			"name":"door_003",
			"translation":[
				-0.00694727897644043,
				1.0611257553100586,
				-0.9131178259849548
			]
		},
		{
			"mesh":3,
			"name":"floor_plate_003"
		},
		{
			"children":[
				2,
				3
			],
			"mesh":4,
			"name":"frame_003",
			"translation":[
				0,
				0.019050000235438347,
				0.30480000376701355
			]
		}
	],
	"materials":[
		{
			"doubleSided":true,
			"name":"door_single_mat",
			"pbrMetallicRoughness":{}
		},
		{
			"doubleSided":true,
			"extensions":{
				"KHR_materials_transmission":{
					"transmissionFactor":1
				},
				"KHR_materials_ior":{
					"ior":1.4500000476837158
				}
			},
			"name":"glass_mat",
			"pbrMetallicRoughness":{
				"baseColorFactor":[
					0.9168045520782471,
					1,
					0.8900054693222046,
					1
				],
				"metallicFactor":0,
				"roughnessFactor":0.05000000074505806
			}
		},
		{
			"doubleSided":true,
			"name":"window_frame_mat",
			"pbrMetallicRoughness":{}
		},
		{
			"doubleSided":true,
			"name":"wire_mat",
			"pbrMetallicRoughness":{}
		},
		{
			"doubleSided":true,
			"name":"props_mat",
			"pbrMetallicRoughness":{}
		},
		{
			"doubleSided":true,
			"name":"frame_mat",
			"pbrMetallicRoughness":{}
		}
	],
	"meshes":[
		{
			"name":"Cylinder.001",
			"primitives":[
				{
					"attributes":{
						"POSITION":0,
						"NORMAL":1,
						"TEXCOORD_0":2,
						"TANGENT":3
					},
					"indices":4,
					"material":0
				}
			]
		},
		{
			"name":"Cylinder.011",
			"primitives":[
				{
					"attributes":{
						"POSITION":5,
						"NORMAL":6,
						"TEXCOORD_0":7,
						"TANGENT":8
					},
					"indices":9,
					"material":0
				}
			]
		},
		{
			"name":"Cylinder.007",
			"primitives":[
				{
					"attributes":{
						"POSITION":10,
						"NORMAL":11,
						"TEXCOORD_0":12,
						"TANGENT":13
					},
					"indices":14,
					"material":0
				},
				{
					"attributes":{
						"POSITION":15,
						"NORMAL":16,
						"TEXCOORD_0":17,
						"TANGENT":18
					},
					"indices":19,
					"material":1
				},
				{
					"attributes":{
						"POSITION":20,
						"NORMAL":21,
						"TEXCOORD_0":22,
						"TANGENT":23
					},
					"indices":24,
					"material":2
				},
				{
					"attributes":{
						"POSITION":25,
						"NORMAL":26,
						"TEXCOORD_0":27,
						"TANGENT":28
					},
					"indices":19,
					"material":3
				}
			]
		},
		{
			"name":"Cube.018",
			"primitives":[
				{
					"attributes":{
						"POSITION":29,
						"NORMAL":30,
						"TEXCOORD_0":31,
						"TANGENT":32
					},
					"indices":33,
					"material":4
				}
			]
		},
		{
			"name":"Plane.005",
			"primitives":[
				{
					"attributes":{
						"POSITION":34,
						"NORMAL":35,
						"TEXCOORD_0":36,
						"TANGENT":37
					},
					"indices":38,
					"material":5
				}
			]
		}
	],
	"accessors":[
		{
			"bufferView":0,
			"componentType":5126,
			"count":648,
			"max":[
				0.06974401324987411,
				0.03333750367164612,
				0.03333751857280731
			],
			"min":[
				-0.08120448142290115,
				-0.03333749994635582,
				-0.09309753030538559
			],
			"type":"VEC3"
		},
		{
			"bufferView":1,
			"componentType":5126,
			"count":648,
			"type":"VEC3"
		},
		{
			"bufferView":2,
			"componentType":5126,
			"count":648,
			"type":"VEC2"
		},
		{
			"bufferView":3,
			"componentType":5126,
			"count":648,
			"type":"VEC4"
		},
		{
			"bufferView":4,
			"componentType":5123,
			"count":2412,
			"type":"SCALAR"
		},
		{
			"bufferView":5,
			"componentType":5126,
			"count":48,
			"max":[
				0.007912627421319485,
				0.015641435980796814,
				0.08524403721094131
			],
			"min":[
				-0.013459582813084126,
				-0.015641432255506516,
				0.06245921924710274
			],
			"type":"VEC3"
		},
		{
			"bufferView":6,
			"componentType":5126,
			"count":48,
			"type":"VEC3"
		},
		{
			"bufferView":7,
			"componentType":5126,
			"count":48,
			"type":"VEC2"
		},
		{
			"bufferView":8,
			"componentType":5126,
			"count":48,
			"type":"VEC4"
		},
		{
			"bufferView":9,
			"componentType":5123,
			"count":120,
			"type":"SCALAR"
		},
		{
			"bufferView":10,
			"componentType":5126,
			"count":347,
			"max":[
				0.05139792710542679,
				0.9696938395500183,
				0.910957932472229
			],
			"min":[
				-0.00627874257043004,
				-1.0611258745193481,
				-0.00628479802981019
			],
			"type":"VEC3"
		},
		{
			"bufferView":11,
			"componentType":5126,
			"count":347,
			"type":"VEC3"
		},
		{
			"bufferView":12,
			"componentType":5126,
			"count":347,
			"type":"VEC2"
		},
		{
			"bufferView":13,
			"componentType":5126,
			"count":347,
			"type":"VEC4"
		},
		{
			"bufferView":14,
			"componentType":5123,
			"count":972,
			"type":"SCALAR"
		},
		{
			"bufferView":15,
			"componentType":5126,
			"count":8,
			"max":[
				0.03223405033349991,
				0.7930752038955688,
				0.7619990110397339
			],
			"min":[
				0.025883955880999565,
				-0.01972479186952114,
				0.15239889919757843
			],
			"type":"VEC3"
		},
		{
			"bufferView":16,
			"componentType":5126,
			"count":8,
			"type":"VEC3"
		},
		{
			"bufferView":17,
			"componentType":5126,
			"count":8,
			"type":"VEC2"
		},
		{
			"bufferView":18,
			"componentType":5126,
			"count":8,
			"type":"VEC4"
		},
		{
			"bufferView":19,
			"componentType":5123,
			"count":12,
			"type":"SCALAR"
		},
		{
			"bufferView":20,
			"componentType":5126,
			"count":128,
			"max":[
				0.05366529896855354,
				0.7930752635002136,
				0.7619989514350891
			],
			"min":[
				0.0044527058489620686,
				-0.019724750891327858,
				0.15239886939525604
			],
			"type":"VEC3"
		},
		{
			"bufferView":21,
			"componentType":5126,
			"count":128,
			"type":"VEC3"
		},
		{
			"bufferView":22,
			"componentType":5126,
			"count":128,
			"type":"VEC2"
		},
		{
			"bufferView":23,
			"componentType":5126,
			"count":128,
			"type":"VEC4"
		},
		{
			"bufferView":24,
			"componentType":5123,
			"count":192,
			"type":"SCALAR"
		},
		{
			"bufferView":25,
			"componentType":5126,
			"count":8,
			"max":[
				0.029455924406647682,
				0.7930752038955688,
				0.7619990110397339
			],
			"min":[
				0.028662079945206642,
				-0.01972479186952114,
				0.15239889919757843
			],
			"type":"VEC3"
		},
		{
			"bufferView":26,
			"componentType":5126,
			"count":8,
			"type":"VEC3"
		},
		{
			"bufferView":27,
			"componentType":5126,
			"count":8,
			"type":"VEC2"
		},
		{
			"bufferView":28,
			"componentType":5126,
			"count":8,
			"type":"VEC4"
		},
		{
			"bufferView":29,
			"componentType":5126,
			"count":40,
			"max":[
				0.14856651425361633,
				-0.007175798993557692,
				1.8110016242189886e-07
			],
			"min":[
				-0.017232416197657585,
				-0.019034788012504578,
				-0.9143998026847839
			],
			"type":"VEC3"
		},
		{
			"bufferView":30,
			"componentType":5126,
			"count":40,
			"type":"VEC3"
		},
		{
			"bufferView":31,
			"componentType":5126,
			"count":40,
			"type":"VEC2"
		},
		{
			"bufferView":32,
			"componentType":5126,
			"count":40,
			"type":"VEC4"
		},
		{
			"bufferView":33,
			"componentType":5123,
			"count":78,
			"type":"SCALAR"
		},
		{
			"bufferView":34,
			"componentType":5126,
			"count":732,
			"max":[
				0.14922499656677246,
				2.0828001499176025,
				0.05080000311136246
			],
			"min":[
				-0.013229621574282646,
				-0.01904992014169693,
				-0.9652002453804016
			],
			"type":"VEC3"
		},
		{
			"bufferView":35,
			"componentType":5126,
			"count":732,
			"type":"VEC3"
		},
		{
			"bufferView":36,
			"componentType":5126,
			"count":732,
			"type":"VEC2"
		},
		{
			"bufferView":37,
			"componentType":5126,
			"count":732,
			"type":"VEC4"
		},
		{
			"bufferView":38,
			"componentType":5123,
			"count":1848,
			"type":"SCALAR"
		}
	],
	"bufferViews":[
		{
			"buffer":0,
			"byteLength":7776,
			"byteOffset":0,
			"target":34962
		},
		{
			"buffer":0,
			"byteLength":7776,
			"byteOffset":7776,
			"target":34962
		},
		{
			"buffer":0,
			"byteLength":5184,
			"byteOffset":15552,
			"target":34962
		},
		{
			"buffer":0,
			"byteLength":10368,
			"byteOffset":20736,
			"target":34962
		},
		{
			"buffer":0,
			"byteLength":4824,
			"byteOffset":31104,
			"target":34963
		},
		{
			"buffer":0,
			"byteLength":576,
			"byteOffset":35928,
			"target":34962
		},
		{
			"buffer":0,
			"byteLength":576,
			"byteOffset":36504,
			"target":34962
		},
		{
			"buffer":0,
			"byteLength":384,
			"byteOffset":37080,
			"target":34962
		},
		{
			"buffer":0,
			"byteLength":768,
			"byteOffset":37464,
			"target":34962
		},
		{
			"buffer":0,
			"byteLength":240,
			"byteOffset":38232,
			"target":34963
		},
		{
			"buffer":0,
			"byteLength":4164,
			"byteOffset":38472,
			"target":34962
		},
		{
			"buffer":0,
			"byteLength":4164,
			"byteOffset":42636,
			"target":34962
		},
		{
			"buffer":0,
			"byteLength":2776,
			"byteOffset":46800,
			"target":34962
		},
		{
			"buffer":0,
			"byteLength":5552,
			"byteOffset":49576,
			"target":34962
		},
		{
			"buffer":0,
			"byteLength":1944,
			"byteOffset":55128,
			"target":34963
		},
		{
			"buffer":0,
			"byteLength":96,
			"byteOffset":57072,
			"target":34962
		},
		{
			"buffer":0,
			"byteLength":96,
			"byteOffset":57168,
			"target":34962
		},
		{
			"buffer":0,
			"byteLength":64,
			"byteOffset":57264,
			"target":34962
		},
		{
			"buffer":0,
			"byteLength":128,
			"byteOffset":57328,
			"target":34962
		},
		{
			"buffer":0,
			"byteLength":24,
			"byteOffset":57456,
			"target":34963
		},
		{
			"buffer":0,
			"byteLength":1536,
			"byteOffset":57480,
			"target":34962
		},
		{
			"buffer":0,
			"byteLength":1536,
			"byteOffset":59016,
			"target":34962
		},
		{
			"buffer":0,
			"byteLength":1024,
			"byteOffset":60552,
			"target":34962
		},
		{
			"buffer":0,
			"byteLength":2048,
			"byteOffset":61576,
			"target":34962
		},
		{
			"buffer":0,
			"byteLength":384,
			"byteOffset":63624,
			"target":34963
		},
		{
			"buffer":0,
			"byteLength":96,
			"byteOffset":64008,
			"target":34962
		},
		{
			"buffer":0,
			"byteLength":96,
			"byteOffset":64104,
			"target":34962
		},
		{
			"buffer":0,
			"byteLength":64,
			"byteOffset":64200,
			"target":34962
		},
		{
			"buffer":0,
			"byteLength":128,
			"byteOffset":64264,
			"target":34962
		},
		{
			"buffer":0,
			"byteLength":480,
			"byteOffset":64392,
			"target":34962
		},
		{
			"buffer":0,
			"byteLength":480,
			"byteOffset":64872,
			"target":34962
		},
		{
			"buffer":0,
			"byteLength":320,
			"byteOffset":65352,
			"target":34962
		},
		{
			"buffer":0,
			"byteLength":640,
			"byteOffset":65672,
			"target":34962
		},
		{
			"buffer":0,
			"byteLength":156,
			"byteOffset":66312,
			"target":34963
		},
		{
			"buffer":0,
			"byteLength":8784,
			"byteOffset":66468,
			"target":34962
		},
		{
			"buffer":0,
			"byteLength":8784,
			"byteOffset":75252,
			"target":34962
		},
		{
			"buffer":0,
			"byteLength":5856,
			"byteOffset":84036,
			"target":34962
		},
		{
			"buffer":0,
			"byteLength":11712,
			"byteOffset":89892,
			"target":34962
		},
		{
			"buffer":0,
			"byteLength":3696,
			"byteOffset":101604,
			"target":34963
		}
	],
	"buffers":[
		{
			"byteLength":105300,
			"uri":"SingleBigWindow-2a5eb4045c1310437e37940b223cec0e.bin"
		}
	]
}
