{
	"asset":{
		"generator":"Khronos glTF Blender I/O v3.6.27",
		"version":"2.0"
	},
	"scene":0,
	"scenes":[
		{
			"extras":{
				"uuid":"022df20a-b22f-4a39-9f0d-91b877a9a0ed",
				"assets reported":{}
			},
			"name":"Scene",
			"nodes":[
				0
			]
		}
	],
	"nodes":[
		{
			"mesh":0,
			"name":"Frame",
			"scale":[
				0.04560001194477081,
				0.024000005796551704,
				0.04560001194477081
			],
			"translation":[
				0,
				0.024000000208616257,
				0
			]
		}
	],
	"materials":[
		{
			"doubleSided":true,
			"name":"Handle",
			"pbrMetallicRoughness":{
				"baseColorFactor":[
					0.35883989930152893,
					0.35883989930152893,
					0.35883989930152893,
					1
				],
				"metallicFactor":0.3937007784843445,
				"roughnessFactor":0.17510461807250977
			}
		}
	],
	"meshes":[
		{
			"name":"Cube",
			"primitives":[
				{
					"attributes":{
						"POSITION":0,
						"NORMAL":1,
						"TEXCOORD_0":2,
						"TANGENT":3
					},
					"indices":4,
					"material":0
				}
			]
		}
	],
	"accessors":[
		{
			"bufferView":0,
			"componentType":5126,
			"count":68,
			"max":[
				1,
				84.33332061767578,
				1
			],
			"min":[
				-26.902873992919922,
				-1,
				-1
			],
			"type":"VEC3"
		},
		{
			"bufferView":1,
			"componentType":5126,
			"count":68,
			"type":"VEC3"
		},
		{
			"bufferView":2,
			"componentType":5126,
			"count":68,
			"type":"VEC2"
		},
		{
			"bufferView":3,
			"componentType":5126,
			"count":68,
			"type":"VEC4"
		},
		{
			"bufferView":4,
			"componentType":5123,
			"count":132,
			"type":"SCALAR"
		}
	],
	"bufferViews":[
		{
			"buffer":0,
			"byteLength":816,
			"byteOffset":0,
			"target":34962
		},
		{
			"buffer":0,
			"byteLength":816,
			"byteOffset":816,
			"target":34962
		},
		{
			"buffer":0,
			"byteLength":544,
			"byteOffset":1632,
			"target":34962
		},
		{
			"buffer":0,
			"byteLength":1088,
			"byteOffset":2176,
			"target":34962
		},
		{
			"buffer":0,
			"byteLength":264,
			"byteOffset":3264,
			"target":34963
		}
	],
	"buffers":[
		{
			"byteLength":3528,
			"uri":"SingleFrame-108baa6d722c1407f057884d248d4c32.bin"
		}
	]
}
