{
	"asset":{
		"generator":"Khronos glTF Blender I/O v3.6.27",
		"version":"2.0"
	},
	"extensionsUsed":[
		"KHR_materials_specular",
		"KHR_materials_ior",
		"KHR_materials_emissive_strength"
	],
	"scene":0,
	"scenes":[
		{
			"extras":{
				"uuid":"680080e8-33fb-479e-b824-20f6eee36450",
				"assets reported":{}
			},
			"name":"Scene",
			"nodes":[
				0,
				1,
				2,
				3
			]
		}
	],
	"nodes":[
		{
			"mesh":0,
			"name":"Cylinder.001",
			"scale":[
				0.699999988079071,
				0.699999988079071,
				0.699999988079071
			],
			"translation":[
				0,
				1,
				0
			]
		},
		{
			"mesh":1,
			"name":"Cylinder.002",
			"translation":[
				0,
				1,
				0
			]
		},
		{
			"mesh":2,
			"name":"Cylinder.003",
			"scale":[
				0.699999988079071,
				0.699999988079071,
				0.699999988079071
			],
			"translation":[
				0,
				1,
				0
			]
		},
		{
			"mesh":3,
			"name":"Circle",
			"scale":[
				0.10000002384185791,
				0.10000002384185791,
				0.10000002384185791
			],
			"translation":[
				-0.47036170959472656,
				1.1401479244232178,
				0.0005283467471599579
			]
		}
	],
	"materials":[
		{
			"doubleSided":true,
			"extensions":{
				"KHR_materials_specular":{
					"specularColorFactor":[
						0,
						0,
						0
					]
				},
				"KHR_materials_ior":{
					"ior":1.4500000476837158
				}
			},
			"name":"WhitePlastic",
			"pbrMetallicRoughness":{
				"baseColorFactor":[
					0.800000011920929,
					0.800000011920929,
					0.800000011920929,
					1
				],
				"metallicFactor":0,
				"roughnessFactor":0.5158730149269104
			}
		},
		{
			"doubleSided":true,
			"extensions":{
				"KHR_materials_specular":{
					"specularColorFactor":[
						0,
						0,
						0
					]
				},
				"KHR_materials_ior":{
					"ior":1.4500000476837158
				}
			},
			"name":"Hole",
			"pbrMetallicRoughness":{
				"baseColorFactor":[
					0,
					0,
					0,
					1
				],
				"metallicFactor":0
			}
		},
		{
			"doubleSided":true,
			"name":"GreyPlastic",
			"pbrMetallicRoughness":{
				"baseColorFactor":[
					0.34238216280937195,
					0.34238216280937195,
					0.34238216280937195,
					1
				],
				"metallicFactor":0
			}
		},
		{
			"doubleSided":true,
			"emissiveFactor":[
				0.43084867649559583,
				1,
				0
			],
			"extensions":{
				"KHR_materials_emissive_strength":{
					"emissiveStrength":1.5159504071188223
				}
			},
			"name":"Lamp",
			"pbrMetallicRoughness":{
				"baseColorFactor":[
					0.8000000715255737,
					0,
					0.000366075400961563,
					1
				],
				"metallicFactor":0,
				"roughnessFactor":0.5
			}
		}
	],
	"meshes":[
		{
			"name":"Cylinder.001",
			"primitives":[
				{
					"attributes":{
						"POSITION":0,
						"NORMAL":1,
						"TEXCOORD_0":2
					},
					"indices":3,
					"material":0
				},
				{
					"attributes":{
						"POSITION":4,
						"NORMAL":5,
						"TEXCOORD_0":6
					},
					"indices":7,
					"material":1
				},
				{
					"attributes":{
						"POSITION":8,
						"NORMAL":9,
						"TEXCOORD_0":10
					},
					"indices":11,
					"material":2
				}
			]
		},
		{
			"name":"Cylinder.002",
			"primitives":[
				{
					"attributes":{
						"POSITION":12,
						"NORMAL":13,
						"TEXCOORD_0":14
					},
					"indices":15
				}
			]
		},
		{
			"name":"Cylinder.003",
			"primitives":[
				{
					"attributes":{
						"POSITION":16,
						"NORMAL":17,
						"TEXCOORD_0":18,
						"TANGENT":19
					},
					"indices":20,
					"material":2
				}
			]
		},
		{
			"name":"Circle.001",
			"primitives":[
				{
					"attributes":{
						"POSITION":21,
						"NORMAL":22,
						"TEXCOORD_0":23
					},
					"indices":24,
					"material":3
				}
			]
		}
	],
	"accessors":[
		{
			"bufferView":0,
			"componentType":5126,
			"count":109,
			"max":[
				1.4285714626312256,
				0.19753515720367432,
				1.4285714626312256
			],
			"min":[
				-1.4285714626312256,
				-1.4285714626312256,
				-1.4285714626312256
			],
			"type":"VEC3"
		},
		{
			"bufferView":1,
			"componentType":5126,
			"count":109,
			"type":"VEC3"
		},
		{
			"bufferView":2,
			"componentType":5126,
			"count":109,
			"type":"VEC2"
		},
		{
			"bufferView":3,
			"componentType":5123,
			"count":372,
			"type":"SCALAR"
		},
		{
			"bufferView":4,
			"componentType":5126,
			"count":16,
			"max":[
				1.4285714626312256,
				-0.4285714626312256,
				1.4285714626312256
			],
			"min":[
				-1.4285714626312256,
				-0.4285714626312256,
				-1.4285714626312256
			],
			"type":"VEC3"
		},
		{
			"bufferView":5,
			"componentType":5126,
			"count":16,
			"type":"VEC3"
		},
		{
			"bufferView":6,
			"componentType":5126,
			"count":16,
			"type":"VEC2"
		},
		{
			"bufferView":7,
			"componentType":5123,
			"count":42,
			"type":"SCALAR"
		},
		{
			"bufferView":8,
			"componentType":5126,
			"count":43,
			"max":[
				1.4285714626312256,
				-0.8194898962974548,
				1.4285714626312256
			],
			"min":[
				-1.4285714626312256,
				-1.0418106317520142,
				-1.4285714626312256
			],
			"type":"VEC3"
		},
		{
			"bufferView":9,
			"componentType":5126,
			"count":43,
			"type":"VEC3"
		},
		{
			"bufferView":10,
			"componentType":5126,
			"count":43,
			"type":"VEC2"
		},
		{
			"bufferView":11,
			"componentType":5123,
			"count":96,
			"type":"SCALAR"
		},
		{
			"bufferView":12,
			"componentType":5126,
			"count":16,
			"max":[
				1,
				-1,
				1
			],
			"min":[
				-1,
				-1,
				-1
			],
			"type":"VEC3"
		},
		{
			"bufferView":13,
			"componentType":5126,
			"count":16,
			"type":"VEC3"
		},
		{
			"bufferView":14,
			"componentType":5126,
			"count":16,
			"type":"VEC2"
		},
		{
			"bufferView":15,
			"componentType":5123,
			"count":42,
			"type":"SCALAR"
		},
		{
			"bufferView":16,
			"componentType":5126,
			"count":32,
			"max":[
				1.4285714626312256,
				0,
				1.4285714626312256
			],
			"min":[
				-1.4285714626312256,
				-0.4285714626312256,
				-1.4285714626312256
			],
			"type":"VEC3"
		},
		{
			"bufferView":17,
			"componentType":5126,
			"count":32,
			"type":"VEC3"
		},
		{
			"bufferView":18,
			"componentType":5126,
			"count":32,
			"type":"VEC2"
		},
		{
			"bufferView":19,
			"componentType":5126,
			"count":32,
			"type":"VEC4"
		},
		{
			"bufferView":20,
			"componentType":5123,
			"count":48,
			"type":"SCALAR"
		},
		{
			"bufferView":21,
			"componentType":5126,
			"count":10,
			"max":[
				0.9510565400123596,
				0,
				1
			],
			"min":[
				-0.9510565400123596,
				0,
				-1
			],
			"type":"VEC3"
		},
		{
			"bufferView":22,
			"componentType":5126,
			"count":10,
			"type":"VEC3"
		},
		{
			"bufferView":23,
			"componentType":5126,
			"count":10,
			"type":"VEC2"
		},
		{
			"bufferView":24,
			"componentType":5123,
			"count":24,
			"type":"SCALAR"
		}
	],
	"bufferViews":[
		{
			"buffer":0,
			"byteLength":1308,
			"byteOffset":0,
			"target":34962
		},
		{
			"buffer":0,
			"byteLength":1308,
			"byteOffset":1308,
			"target":34962
		},
		{
			"buffer":0,
			"byteLength":872,
			"byteOffset":2616,
			"target":34962
		},
		{
			"buffer":0,
			"byteLength":744,
			"byteOffset":3488,
			"target":34963
		},
		{
			"buffer":0,
			"byteLength":192,
			"byteOffset":4232,
			"target":34962
		},
		{
			"buffer":0,
			"byteLength":192,
			"byteOffset":4424,
			"target":34962
		},
		{
			"buffer":0,
			"byteLength":128,
			"byteOffset":4616,
			"target":34962
		},
		{
			"buffer":0,
			"byteLength":84,
			"byteOffset":4744,
			"target":34963
		},
		{
			"buffer":0,
			"byteLength":516,
			"byteOffset":4828,
			"target":34962
		},
		{
			"buffer":0,
			"byteLength":516,
			"byteOffset":5344,
			"target":34962
		},
		{
			"buffer":0,
			"byteLength":344,
			"byteOffset":5860,
			"target":34962
		},
		{
			"buffer":0,
			"byteLength":192,
			"byteOffset":6204,
			"target":34963
		},
		{
			"buffer":0,
			"byteLength":192,
			"byteOffset":6396,
			"target":34962
		},
		{
			"buffer":0,
			"byteLength":192,
			"byteOffset":6588,
			"target":34962
		},
		{
			"buffer":0,
			"byteLength":128,
			"byteOffset":6780,
			"target":34962
		},
		{
			"buffer":0,
			"byteLength":84,
			"byteOffset":6908,
			"target":34963
		},
		{
			"buffer":0,
			"byteLength":384,
			"byteOffset":6992,
			"target":34962
		},
		{
			"buffer":0,
			"byteLength":384,
			"byteOffset":7376,
			"target":34962
		},
		{
			"buffer":0,
			"byteLength":256,
			"byteOffset":7760,
			"target":34962
		},
		{
			"buffer":0,
			"byteLength":512,
			"byteOffset":8016,
			"target":34962
		},
		{
			"buffer":0,
			"byteLength":96,
			"byteOffset":8528,
			"target":34963
		},
		{
			"buffer":0,
			"byteLength":120,
			"byteOffset":8624,
			"target":34962
		},
		{
			"buffer":0,
			"byteLength":120,
			"byteOffset":8744,
			"target":34962
		},
		{
			"buffer":0,
			"byteLength":80,
			"byteOffset":8864,
			"target":34962
		},
		{
			"buffer":0,
			"byteLength":48,
			"byteOffset":8944,
			"target":34963
		}
	],
	"buffers":[
		{
			"byteLength":8992,
			"uri":"SmokeDetector-2b1aa5cfa6e5268cb08698f16433605b.bin"
		}
	]
}
