{
	"asset":{
		"generator":"Khronos glTF Blender I/O v3.6.27",
		"version":"2.0"
	},
	"scene":0,
	"scenes":[
		{
			"extras":{
				"uuid":"de0f5574-baa7-49d8-9df3-a1f351aa4c8d",
				"assets reported":{}
			},
			"name":"Scene",
			"nodes":[
				0,
				1,
				2,
				3,
				4
			]
		}
	],
	"nodes":[
		{
			"mesh":0,
			"name":"Frame"
		},
		{
			"mesh":1,
			"name":"Frame.001"
		},
		{
			"mesh":2,
			"name":"Frame.002"
		},
		{
			"mesh":3,
			"name":"Frame.003"
		},
		{
			"mesh":4,
			"name":"Frame.004"
		}
	],
	"materials":[
		{
			"doubleSided":true,
			"name":"WhitePlastic",
			"pbrMetallicRoughness":{
				"baseColorFactor":[
					0.800000011920929,
					0.800000011920929,
					0.800000011920929,
					1
				],
				"metallicFactor":0,
				"roughnessFactor":0.4448818862438202
			}
		},
		{
			"doubleSided":true,
			"name":"Hole",
			"pbrMetallicRoughness":{
				"baseColorFactor":[
					0,
					0,
					0,
					1
				],
				"metallicFactor":0
			}
		}
	],
	"meshes":[
		{
			"name":"Plane",
			"primitives":[
				{
					"attributes":{
						"POSITION":0,
						"NORMAL":1,
						"TEXCOORD_0":2,
						"TANGENT":3
					},
					"indices":4,
					"material":0
				}
			]
		},
		{
			"name":"Plane.003",
			"primitives":[
				{
					"attributes":{
						"POSITION":5,
						"NORMAL":6,
						"TEXCOORD_0":7
					},
					"indices":8,
					"material":0
				}
			]
		},
		{
			"name":"Plane.004",
			"primitives":[
				{
					"attributes":{
						"POSITION":9,
						"NORMAL":10,
						"TEXCOORD_0":11,
						"TANGENT":12
					},
					"indices":13,
					"material":0
				}
			]
		},
		{
			"name":"Plane.005",
			"primitives":[
				{
					"attributes":{
						"POSITION":14,
						"NORMAL":15,
						"TEXCOORD_0":16,
						"TANGENT":17
					},
					"indices":18,
					"material":0
				}
			]
		},
		{
			"name":"Plane.006",
			"primitives":[
				{
					"attributes":{
						"POSITION":19,
						"NORMAL":20,
						"TEXCOORD_0":21
					},
					"indices":22,
					"material":1
				}
			]
		}
	],
	"accessors":[
		{
			"bufferView":0,
			"componentType":5126,
			"count":64,
			"max":[
				0.800000011920929,
				0.30504947900772095,
				0.800000011920929
			],
			"min":[
				-0.800000011920929,
				0.29999998211860657,
				-0.800000011920929
			],
			"type":"VEC3"
		},
		{
			"bufferView":1,
			"componentType":5126,
			"count":64,
			"type":"VEC3"
		},
		{
			"bufferView":2,
			"componentType":5126,
			"count":64,
			"type":"VEC2"
		},
		{
			"bufferView":3,
			"componentType":5126,
			"count":64,
			"type":"VEC4"
		},
		{
			"bufferView":4,
			"componentType":5123,
			"count":72,
			"type":"SCALAR"
		},
		{
			"bufferView":5,
			"componentType":5126,
			"count":28,
			"max":[
				0.699999988079071,
				0.10000001639127731,
				0.699999988079071
			],
			"min":[
				-0.699999988079071,
				0.10000000149011612,
				-0.699999988079071
			],
			"type":"VEC3"
		},
		{
			"bufferView":6,
			"componentType":5126,
			"count":28,
			"type":"VEC3"
		},
		{
			"bufferView":7,
			"componentType":5126,
			"count":28,
			"type":"VEC2"
		},
		{
			"bufferView":8,
			"componentType":5123,
			"count":90,
			"type":"SCALAR"
		},
		{
			"bufferView":9,
			"componentType":5126,
			"count":34,
			"max":[
				0.699999988079071,
				0.29999998211860657,
				0.699999988079071
			],
			"min":[
				-0.699999988079071,
				0.10000000149011612,
				-0.699999988079071
			],
			"type":"VEC3"
		},
		{
			"bufferView":10,
			"componentType":5126,
			"count":34,
			"type":"VEC3"
		},
		{
			"bufferView":11,
			"componentType":5126,
			"count":34,
			"type":"VEC2"
		},
		{
			"bufferView":12,
			"componentType":5126,
			"count":34,
			"type":"VEC4"
		},
		{
			"bufferView":13,
			"componentType":5123,
			"count":96,
			"type":"SCALAR"
		},
		{
			"bufferView":14,
			"componentType":5126,
			"count":31,
			"max":[
				1,
				0.30504947900772095,
				1
			],
			"min":[
				-1,
				0,
				-1
			],
			"type":"VEC3"
		},
		{
			"bufferView":15,
			"componentType":5126,
			"count":31,
			"type":"VEC3"
		},
		{
			"bufferView":16,
			"componentType":5126,
			"count":31,
			"type":"VEC2"
		},
		{
			"bufferView":17,
			"componentType":5126,
			"count":31,
			"type":"VEC4"
		},
		{
			"bufferView":18,
			"componentType":5123,
			"count":96,
			"type":"SCALAR"
		},
		{
			"bufferView":19,
			"componentType":5126,
			"count":60,
			"max":[
				0.3184722661972046,
				0.10000001639127731,
				0.13680000603199005
			],
			"min":[
				-0.3184722661972046,
				0.01194869726896286,
				-0.13680000603199005
			],
			"type":"VEC3"
		},
		{
			"bufferView":20,
			"componentType":5126,
			"count":60,
			"type":"VEC3"
		},
		{
			"bufferView":21,
			"componentType":5126,
			"count":60,
			"type":"VEC2"
		},
		{
			"bufferView":22,
			"componentType":5123,
			"count":96,
			"type":"SCALAR"
		}
	],
	"bufferViews":[
		{
			"buffer":0,
			"byteLength":768,
			"byteOffset":0,
			"target":34962
		},
		{
			"buffer":0,
			"byteLength":768,
			"byteOffset":768,
			"target":34962
		},
		{
			"buffer":0,
			"byteLength":512,
			"byteOffset":1536,
			"target":34962
		},
		{
			"buffer":0,
			"byteLength":1024,
			"byteOffset":2048,
			"target":34962
		},
		{
			"buffer":0,
			"byteLength":144,
			"byteOffset":3072,
			"target":34963
		},
		{
			"buffer":0,
			"byteLength":336,
			"byteOffset":3216,
			"target":34962
		},
		{
			"buffer":0,
			"byteLength":336,
			"byteOffset":3552,
			"target":34962
		},
		{
			"buffer":0,
			"byteLength":224,
			"byteOffset":3888,
			"target":34962
		},
		{
			"buffer":0,
			"byteLength":180,
			"byteOffset":4112,
			"target":34963
		},
		{
			"buffer":0,
			"byteLength":408,
			"byteOffset":4292,
			"target":34962
		},
		{
			"buffer":0,
			"byteLength":408,
			"byteOffset":4700,
			"target":34962
		},
		{
			"buffer":0,
			"byteLength":272,
			"byteOffset":5108,
			"target":34962
		},
		{
			"buffer":0,
			"byteLength":544,
			"byteOffset":5380,
			"target":34962
		},
		{
			"buffer":0,
			"byteLength":192,
			"byteOffset":5924,
			"target":34963
		},
		{
			"buffer":0,
			"byteLength":372,
			"byteOffset":6116,
			"target":34962
		},
		{
			"buffer":0,
			"byteLength":372,
			"byteOffset":6488,
			"target":34962
		},
		{
			"buffer":0,
			"byteLength":248,
			"byteOffset":6860,
			"target":34962
		},
		{
			"buffer":0,
			"byteLength":496,
			"byteOffset":7108,
			"target":34962
		},
		{
			"buffer":0,
			"byteLength":192,
			"byteOffset":7604,
			"target":34963
		},
		{
			"buffer":0,
			"byteLength":720,
			"byteOffset":7796,
			"target":34962
		},
		{
			"buffer":0,
			"byteLength":720,
			"byteOffset":8516,
			"target":34962
		},
		{
			"buffer":0,
			"byteLength":480,
			"byteOffset":9236,
			"target":34962
		},
		{
			"buffer":0,
			"byteLength":192,
			"byteOffset":9716,
			"target":34963
		}
	],
	"buffers":[
		{
			"byteLength":9908,
			"uri":"Socket-d3461762f8928068eb488c8f16402587.bin"
		}
	]
}
