{
	"asset":{
		"generator":"Khronos glTF Blender I/O v3.6.27",
		"version":"2.0"
	},
	"scene":0,
	"scenes":[
		{
			"extras":{
				"uuid":"5ae347a2-8245-41d2-a040-1f8ee5456817",
				"assets reported":{}
			},
			"name":"Scene",
			"nodes":[
				0
			]
		}
	],
	"nodes":[
		{
			"mesh":0,
			"name":"VentelationBlock"
		}
	],
	"materials":[
		{
			"doubleSided":true,
			"name":"Metall",
			"pbrMetallicRoughness":{
				"baseColorFactor":[
					0.15743348002433777,
					0.15743348002433777,
					0.15743348002433777,
					1
				],
				"metallicFactor":0.8503937125205994,
				"roughnessFactor":0.27952754497528076
			}
		},
		{
			"doubleSided":true,
			"name":"Joint",
			"pbrMetallicRoughness":{
				"baseColorFactor":[
					0.054968539625406265,
					0.054968539625406265,
					0.054968539625406265,
					1
				],
				"metallicFactor":0.7244094610214233,
				"roughnessFactor":0.32677164673805237
			}
		}
	],
	"meshes":[
		{
			"name":"Cube",
			"primitives":[
				{
					"attributes":{
						"POSITION":0,
						"NORMAL":1,
						"TEXCOORD_0":2,
						"TANGENT":3
					},
					"indices":4,
					"material":0
				},
				{
					"attributes":{
						"POSITION":5,
						"NORMAL":6,
						"TEXCOORD_0":7,
						"TANGENT":8
					},
					"indices":9,
					"material":1
				}
			]
		}
	],
	"accessors":[
		{
			"bufferView":0,
			"componentType":5126,
			"count":48,
			"max":[
				1,
				1,
				0.9628089070320129
			],
			"min":[
				-1,
				-1,
				-0.9578089118003845
			],
			"type":"VEC3"
		},
		{
			"bufferView":1,
			"componentType":5126,
			"count":48,
			"type":"VEC3"
		},
		{
			"bufferView":2,
			"componentType":5126,
			"count":48,
			"type":"VEC2"
		},
		{
			"bufferView":3,
			"componentType":5126,
			"count":48,
			"type":"VEC4"
		},
		{
			"bufferView":4,
			"componentType":5123,
			"count":48,
			"type":"SCALAR"
		},
		{
			"bufferView":5,
			"componentType":5126,
			"count":32,
			"max":[
				1,
				1,
				1
			],
			"min":[
				-1,
				-1,
				-1
			],
			"type":"VEC3"
		},
		{
			"bufferView":6,
			"componentType":5126,
			"count":32,
			"type":"VEC3"
		},
		{
			"bufferView":7,
			"componentType":5126,
			"count":32,
			"type":"VEC2"
		},
		{
			"bufferView":8,
			"componentType":5126,
			"count":32,
			"type":"VEC4"
		},
		{
			"bufferView":9,
			"componentType":5123,
			"count":48,
			"type":"SCALAR"
		}
	],
	"bufferViews":[
		{
			"buffer":0,
			"byteLength":576,
			"byteOffset":0,
			"target":34962
		},
		{
			"buffer":0,
			"byteLength":576,
			"byteOffset":576,
			"target":34962
		},
		{
			"buffer":0,
			"byteLength":384,
			"byteOffset":1152,
			"target":34962
		},
		{
			"buffer":0,
			"byteLength":768,
			"byteOffset":1536,
			"target":34962
		},
		{
			"buffer":0,
			"byteLength":96,
			"byteOffset":2304,
			"target":34963
		},
		{
			"buffer":0,
			"byteLength":384,
			"byteOffset":2400,
			"target":34962
		},
		{
			"buffer":0,
			"byteLength":384,
			"byteOffset":2784,
			"target":34962
		},
		{
			"buffer":0,
			"byteLength":256,
			"byteOffset":3168,
			"target":34962
		},
		{
			"buffer":0,
			"byteLength":512,
			"byteOffset":3424,
			"target":34962
		},
		{
			"buffer":0,
			"byteLength":96,
			"byteOffset":3936,
			"target":34963
		}
	],
	"buffers":[
		{
			"byteLength":4032,
			"uri":"Straight-2a9278a790d21629c139a433391923f9.bin"
		}
	]
}
