{
	"asset":{
		"generator":"Khronos glTF Blender I/O v3.6.27",
		"version":"2.0"
	},
	"extensionsUsed":[
		"KHR_materials_emissive_strength"
	],
	"scene":0,
	"scenes":[
		{
			"extras":{
				"uuid":"de0f5574-baa7-49d8-9df3-a1f351aa4c8d",
				"assets reported":{}
			},
			"name":"Scene",
			"nodes":[
				0,
				1
			]
		}
	],
	"nodes":[
		{
			"mesh":0,
			"name":"Frame"
		},
		{
			"mesh":1,
			"name":"Button",
			"translation":[
				0,
				0.24682185053825378,
				0
			]
		}
	],
	"materials":[
		{
			"doubleSided":true,
			"name":"WhitePlastic",
			"pbrMetallicRoughness":{
				"baseColorFactor":[
					0.800000011920929,
					0.800000011920929,
					0.800000011920929,
					1
				],
				"metallicFactor":0,
				"roughnessFactor":0.4448818862438202
			}
		},
		{
			"doubleSided":true,
			"emissiveFactor":[
				1,
				0.005657633766531944,
				0
			],
			"extensions":{
				"KHR_materials_emissive_strength":{
					"emissiveStrength":6.799999237060547
				}
			},
			"name":"Lamp",
			"pbrMetallicRoughness":{
				"baseColorFactor":[
					0.8000000715255737,
					0.010791616514325142,
					0,
					1
				],
				"metallicFactor":0,
				"roughnessFactor":0.5
			}
		}
	],
	"meshes":[
		{
			"name":"Plane",
			"primitives":[
				{
					"attributes":{
						"POSITION":0,
						"NORMAL":1,
						"TEXCOORD_0":2,
						"TANGENT":3
					},
					"indices":4
				}
			]
		},
		{
			"name":"Plane.001",
			"primitives":[
				{
					"attributes":{
						"POSITION":5,
						"NORMAL":6,
						"TEXCOORD_0":7
					},
					"indices":8,
					"material":0
				},
				{
					"attributes":{
						"POSITION":9,
						"NORMAL":10,
						"TEXCOORD_0":11
					},
					"indices":12,
					"material":1
				}
			]
		}
	],
	"accessors":[
		{
			"bufferView":0,
			"componentType":5126,
			"count":17,
			"max":[
				1,
				0.30504947900772095,
				1
			],
			"min":[
				-1,
				0,
				-1
			],
			"type":"VEC3"
		},
		{
			"bufferView":1,
			"componentType":5126,
			"count":17,
			"type":"VEC3"
		},
		{
			"bufferView":2,
			"componentType":5126,
			"count":17,
			"type":"VEC2"
		},
		{
			"bufferView":3,
			"componentType":5126,
			"count":17,
			"type":"VEC4"
		},
		{
			"bufferView":4,
			"componentType":5123,
			"count":48,
			"type":"SCALAR"
		},
		{
			"bufferView":5,
			"componentType":5126,
			"count":64,
			"max":[
				0.8749915957450867,
				0.16189312934875488,
				0.800000011920929
			],
			"min":[
				-0.8749915957450867,
				-0.15810686349868774,
				-0.800000011920929
			],
			"type":"VEC3"
		},
		{
			"bufferView":6,
			"componentType":5126,
			"count":64,
			"type":"VEC3"
		},
		{
			"bufferView":7,
			"componentType":5126,
			"count":64,
			"type":"VEC2"
		},
		{
			"bufferView":8,
			"componentType":5123,
			"count":180,
			"type":"SCALAR"
		},
		{
			"bufferView":9,
			"componentType":5126,
			"count":4,
			"max":[
				-0.41879621148109436,
				0.16189312934875488,
				0.12626904249191284
			],
			"min":[
				-0.5466361045837402,
				0.16189312934875488,
				-0.11884449422359467
			],
			"type":"VEC3"
		},
		{
			"bufferView":10,
			"componentType":5126,
			"count":4,
			"type":"VEC3"
		},
		{
			"bufferView":11,
			"componentType":5126,
			"count":4,
			"type":"VEC2"
		},
		{
			"bufferView":12,
			"componentType":5123,
			"count":6,
			"type":"SCALAR"
		}
	],
	"bufferViews":[
		{
			"buffer":0,
			"byteLength":204,
			"byteOffset":0,
			"target":34962
		},
		{
			"buffer":0,
			"byteLength":204,
			"byteOffset":204,
			"target":34962
		},
		{
			"buffer":0,
			"byteLength":136,
			"byteOffset":408,
			"target":34962
		},
		{
			"buffer":0,
			"byteLength":272,
			"byteOffset":544,
			"target":34962
		},
		{
			"buffer":0,
			"byteLength":96,
			"byteOffset":816,
			"target":34963
		},
		{
			"buffer":0,
			"byteLength":768,
			"byteOffset":912,
			"target":34962
		},
		{
			"buffer":0,
			"byteLength":768,
			"byteOffset":1680,
			"target":34962
		},
		{
			"buffer":0,
			"byteLength":512,
			"byteOffset":2448,
			"target":34962
		},
		{
			"buffer":0,
			"byteLength":360,
			"byteOffset":2960,
			"target":34963
		},
		{
			"buffer":0,
			"byteLength":48,
			"byteOffset":3320,
			"target":34962
		},
		{
			"buffer":0,
			"byteLength":48,
			"byteOffset":3368,
			"target":34962
		},
		{
			"buffer":0,
			"byteLength":32,
			"byteOffset":3416,
			"target":34962
		},
		{
			"buffer":0,
			"byteLength":12,
			"byteOffset":3448,
			"target":34963
		}
	],
	"buffers":[
		{
			"byteLength":3460,
			"uri":"Switcher-e51e15ae68088ab5cfe49ef51fe7929c.bin"
		}
	]
}
