{
	"asset":{
		"generator":"Khronos glTF Blender I/O v3.6.27",
		"version":"2.0"
	},
	"extensionsUsed":[
		"KHR_materials_specular",
		"KHR_materials_ior"
	],
	"scene":0,
	"scenes":[
		{
			"extras":{
				"uuid":"e1e5f99d-5e68-487e-abd8-864af100549f",
				"assets reported":{}
			},
			"name":"Scene",
			"nodes":[
				0,
				1
			]
		}
	],
	"nodes":[
		{
			"mesh":0,
			"name":"Frame",
			"scale":[
				1,
				0.10000002384185791,
				1
			]
		},
		{
			"mesh":1,
			"name":"Shutter",
			"rotation":[
				0.2588190734386444,
				0,
				0,
				0.965925931930542
			],
			"scale":[
				1,
				0.10000002384185791,
				1
			],
			"translation":[
				0,
				0,
				-0.7714285850524902
			]
		}
	],
	"materials":[
		{
			"doubleSided":true,
			"extensions":{
				"KHR_materials_specular":{
					"specularColorFactor":[
						0.9616134863155136,
						0.9616134863155136,
						0.9616134863155136
					]
				},
				"KHR_materials_ior":{
					"ior":1.4500000476837158
				}
			},
			"name":"WhitePlastic",
			"pbrMetallicRoughness":{
				"baseColorFactor":[
					0.800000011920929,
					0.800000011920929,
					0.800000011920929,
					1
				],
				"metallicFactor":0,
				"roughnessFactor":0.10629922151565552
			}
		}
	],
	"meshes":[
		{
			"name":"Cube.001",
			"primitives":[
				{
					"attributes":{
						"POSITION":0,
						"NORMAL":1,
						"TEXCOORD_0":2,
						"TANGENT":3
					},
					"indices":4,
					"material":0
				}
			]
		},
		{
			"name":"Cube.009",
			"primitives":[
				{
					"attributes":{
						"POSITION":5,
						"NORMAL":6,
						"TEXCOORD_0":7,
						"TANGENT":8
					},
					"indices":9,
					"material":0
				}
			]
		}
	],
	"accessors":[
		{
			"bufferView":0,
			"componentType":5126,
			"count":28,
			"max":[
				1,
				1,
				1
			],
			"min":[
				-1,
				-1,
				-1
			],
			"type":"VEC3"
		},
		{
			"bufferView":1,
			"componentType":5126,
			"count":28,
			"type":"VEC3"
		},
		{
			"bufferView":2,
			"componentType":5126,
			"count":28,
			"type":"VEC2"
		},
		{
			"bufferView":3,
			"componentType":5126,
			"count":28,
			"type":"VEC4"
		},
		{
			"bufferView":4,
			"componentType":5123,
			"count":96,
			"type":"SCALAR"
		},
		{
			"bufferView":5,
			"componentType":5126,
			"count":28,
			"max":[
				0.9000000357627869,
				7.714284420013428,
				1.4647250175476074
			],
			"min":[
				-0.9000000357627869,
				0,
				-0.12857145071029663
			],
			"type":"VEC3"
		},
		{
			"bufferView":6,
			"componentType":5126,
			"count":28,
			"type":"VEC3"
		},
		{
			"bufferView":7,
			"componentType":5126,
			"count":28,
			"type":"VEC2"
		},
		{
			"bufferView":8,
			"componentType":5126,
			"count":28,
			"type":"VEC4"
		},
		{
			"bufferView":9,
			"componentType":5123,
			"count":42,
			"type":"SCALAR"
		}
	],
	"bufferViews":[
		{
			"buffer":0,
			"byteLength":336,
			"byteOffset":0,
			"target":34962
		},
		{
			"buffer":0,
			"byteLength":336,
			"byteOffset":336,
			"target":34962
		},
		{
			"buffer":0,
			"byteLength":224,
			"byteOffset":672,
			"target":34962
		},
		{
			"buffer":0,
			"byteLength":448,
			"byteOffset":896,
			"target":34962
		},
		{
			"buffer":0,
			"byteLength":192,
			"byteOffset":1344,
			"target":34963
		},
		{
			"buffer":0,
			"byteLength":336,
			"byteOffset":1536,
			"target":34962
		},
		{
			"buffer":0,
			"byteLength":336,
			"byteOffset":1872,
			"target":34962
		},
		{
			"buffer":0,
			"byteLength":224,
			"byteOffset":2208,
			"target":34962
		},
		{
			"buffer":0,
			"byteLength":448,
			"byteOffset":2432,
			"target":34962
		},
		{
			"buffer":0,
			"byteLength":84,
			"byteOffset":2880,
			"target":34963
		}
	],
	"buffers":[
		{
			"byteLength":2964,
			"uri":"VentialtionHatch-6050f8325435162a5d7276720f8d3ef4.bin"
		}
	]
}
